<svg xmlns="http://www.w3.org/2000/svg" xmlns:xlink="http://www.w3.org/1999/xlink" width="243" height="248.132" viewBox="0 0 243 248.132">
  <defs>
    <linearGradient id="linear-gradient" x1="0.933" y1="0.076" x2="0.385" y2="1" gradientUnits="objectBoundingBox">
      <stop offset="0" stop-color="#ffc344"/>
      <stop offset="1" stop-color="#ffd479" stop-opacity="0.169"/>
    </linearGradient>
  </defs>
  <g id="empty_cart" data-name="empty cart" transform="translate(-66 -113)">
    <g id="Background" transform="translate(66 258)">
      <g id="Group_328" data-name="Group 328" opacity="0.8">
        <path id="Rectangle_28" data-name="Rectangle 28" d="M136.509,315.01h153a25,25,0,0,1,25,25h0a25,25,0,0,1-25,25h-153a25,25,0,0,1-25-25h0A25,25,0,0,1,136.509,315.01Z" transform="translate(-71.509 -290.01)" fill="#fcf7ea"/>
        <path id="Rectangle_29" data-name="Rectangle 29" d="M91.509,290.01h163a20,20,0,0,1,20,20h0a20,20,0,0,1-20,20h-163a20,20,0,0,1-20-20h0A20,20,0,0,1,91.509,290.01Z" transform="translate(-71.509 -290.01)" fill="#fcf7ea"/>
        <path id="Rectangle_30" data-name="Rectangle 30" d="M91.509,350.01h163a20,20,0,0,1,20,20h0a20,20,0,0,1-20,20h-163a20,20,0,0,1-20-20h0A20,20,0,0,1,91.509,350.01Z" transform="translate(-71.509 -290.01)" fill="#fcf7ea"/>
      </g>
    </g>
    <path id="Path_63" data-name="Path 63" d="M137.162,316.905l83.715-126.72,9.29,2.736L217.445,320.636Z" transform="translate(5.959 -43.928)" fill="url(#linear-gradient)"/>
    <g id="Group_26" data-name="Group 26" transform="translate(-5.396 -25.541)">
      <g id="Group_23" data-name="Group 23" transform="translate(142.667 285.928)">
        <path id="Path_50" data-name="Path 50" d="M143.968,299.125h91.18l2.563-12.164a1.355,1.355,0,0,1,1.277-1.033h15.837a1.325,1.325,0,0,1,0,2.64H240.06L225.875,355.5a1.4,1.4,0,0,1-1.4,1.692H158.483a1.325,1.325,0,1,1,0-2.64H223.4l2.8-13.2h-73a1.358,1.358,0,0,1-1.278-1.03l-9.238-39.589a1.382,1.382,0,0,1,1.133-1.594A1.1,1.1,0,0,1,143.968,299.125Z" transform="translate(-142.667 -285.928)" fill="#f0365a"/>
        <path id="Path_51" data-name="Path 51" d="M198.814,335.35H220.92l3.629-17.156H198.818Z" transform="translate(-136.809 -282.562)"/>
        <path id="Path_52" data-name="Path 52" d="M198.814,317.425h26.273l3.63-17.156h-29.9Z" transform="translate(-136.809 -284.432)"/>
        <rect id="Rectangle_37" data-name="Rectangle 37" width="23.755" height="17.156" transform="translate(35.612 35.632)"/>
        <rect id="Rectangle_38" data-name="Rectangle 38" width="23.755" height="17.156" transform="translate(35.612 15.837)"/>
        <path id="Path_53" data-name="Path 53" d="M153.518,335.35h21.4V318.194h-25.4Z" transform="translate(-141.952 -282.562)"/>
        <path id="Path_54" data-name="Path 54" d="M149.338,317.425H175.36V300.269H145.339Z" transform="translate(-142.388 -284.432)"/>
      </g>
      <g id="Group_24" data-name="Group 24" transform="translate(199.394 362.469)">
        <path id="Path_55" data-name="Path 55" d="M204.59,355.238A10.557,10.557,0,1,1,194.035,365.8h0A10.575,10.575,0,0,1,204.59,355.238Z" transform="translate(-194.035 -355.238)" fill="#f0365a"/>
        <path id="Path_56" data-name="Path 56" d="M204.341,373.466a7.918,7.918,0,1,0-7.916-7.92v0a7.9,7.9,0,0,0,7.88,7.918Z" transform="translate(-193.786 -354.988)"/>
      </g>
      <g id="Group_25" data-name="Group 25" transform="translate(162.442 362.469)">
        <path id="Path_57" data-name="Path 57" d="M171.132,355.238A10.557,10.557,0,1,1,160.574,365.8,10.558,10.558,0,0,1,171.132,355.238Z" transform="translate(-160.574 -355.238)" fill="#f0355a"/>
        <circle id="Ellipse_5" data-name="Ellipse 5" cx="7.918" cy="7.918" r="7.918" transform="translate(2.64 2.64)"/>
      </g>
      <path id="Path_75" data-name="Path 75" d="M170.883,357.629a7.918,7.918,0,1,1-7.918,7.918h0A7.918,7.918,0,0,1,170.883,357.629Z" transform="translate(2.118 7.48)" fill="#f7d7dd"/>
      <path id="Path_58" data-name="Path 58" d="M196.426,365.547a7.9,7.9,0,1,0,0-.04A.244.244,0,0,0,196.426,365.547Z" transform="translate(5.608 7.48)" fill="#f7d7dd"/>
      <path id="Path_59" data-name="Path 59" d="M198.814,318.194V335.35H220.92l3.629-17.156Z" transform="translate(5.858 3.366)" fill="#faa2b3"/>
      <rect id="Rectangle_39" data-name="Rectangle 39" width="23.755" height="17.156" transform="translate(178.279 321.56)" fill="#faa2b3"/>
      <path id="Path_60" data-name="Path 60" d="M149.52,318.194l4,17.156h21.4V318.194Z" transform="translate(0.715 3.366)" fill="#faa2b3"/>
      <path id="Path_61" data-name="Path 61" d="M145.339,300.269l4,17.156H175.36V300.269Z" transform="translate(0.279 1.496)" fill="#faa2b3"/>
      <rect id="Rectangle_40" data-name="Rectangle 40" width="23.755" height="17.156" transform="translate(178.279 301.765)" fill="#faa2b3"/>
      <path id="Path_62" data-name="Path 62" d="M198.814,300.269v17.156h26.273l3.63-17.156Z" transform="translate(5.858 1.496)" fill="#faa2b3"/>
    </g>
    <g id="Group_29" data-name="Group 29" transform="translate(-1.56 -35.893) rotate(-3)">
      <g id="Path_64" data-name="Path 64">
        <path id="Path_213" data-name="Path 213" d="M227.746,185.135c11.675,4.481,19.929,11.269,18.435,15.161s-12.171,3.417-23.847-1.064-19.927-11.274-18.433-15.166S216.07,180.653,227.746,185.135Z" fill="none"/>
        <path id="Path_214" data-name="Path 214" d="M227.387,186.068a51.668,51.668,0,0,0-15.427-3.609c-3.922-.175-6.586.559-7.126,1.966s.948,3.735,3.981,6.228a58.119,58.119,0,0,0,29.306,11.25c3.922.176,6.586-.559,7.126-1.965s-.949-3.735-3.981-6.229a51.666,51.666,0,0,0-13.879-7.641m.358-.933c11.676,4.481,19.929,11.269,18.435,15.161s-12.169,3.413-23.845-1.068-19.928-11.27-18.434-15.162S216.07,180.653,227.745,185.135Z" fill="#286fff"/>
      </g>
      <g id="Group_28" data-name="Group 28">
        <g id="Group_5" data-name="Group 5">
          <path id="Path_10" data-name="Path 10" d="M214.545,184.026s-13.118-1.795-3.94,5.556c0,0,12.48,9.572,29.075,10.673a6.987,6.987,0,0,0,2.166-.182c1.956-.5,4.345-2.062-3.4-6.941" fill="#8db0fc"/>
          <path id="Path_11" data-name="Path 11" d="M213.844,185.221s4.862-10.277,16.667-6.894a11.409,11.409,0,0,1,6.273,4.34c1.613,2.313,2.821,5.882,1.523,11.067a1.692,1.692,0,0,1-1.909,1.244C231.915,194.282,218.581,191.709,213.844,185.221Z" fill="#6393f5" opacity="0.995" style="isolation: isolate"/>
          <path id="Path_13" data-name="Path 13" d="M233.59,185.035s1.656.934,1.3,6.167" fill="#acd7d4"/>
        </g>
        <g id="Group_7" data-name="Group 7">
          <g id="Group_6" data-name="Group 6">
            <path id="Path_15" data-name="Path 15" d="M234.576,175.42l.81-1.907a.638.638,0,0,0-1.174-.5l-.809,1.907a.637.637,0,1,0,1.173.5Z" fill="#8eaefc"/>
            <path id="Path_16" data-name="Path 16" d="M237.277,179.906a.674.674,0,0,0,.54-.048l1.772-.911a.637.637,0,0,0,.256-.86.6.6,0,0,0-.8-.29l-.052.028-1.774.913a.606.606,0,0,0-.291.8c.009.018.018.036.028.052A.677.677,0,0,0,237.277,179.906Z" fill="#8eaefc"/>
            <path id="Path_17" data-name="Path 17" d="M228.3,176.1a.673.673,0,0,0,.443.015.606.606,0,0,0,.453-.727c-.005-.02-.011-.039-.018-.059l-.574-1.9a.605.605,0,0,0-.726-.453.55.55,0,0,0-.058.017.638.638,0,0,0-.441.782l.576,1.906A.669.669,0,0,0,228.3,176.1Z" fill="#8eaefc"/>
          </g>
        </g>
      </g>
    </g>
    <g id="Group_30" data-name="Group 30" transform="translate(-0.041 -29.928)" opacity="0.945">
      <path id="np_box_1776232_000000" data-name="np box 1776232 000000" d="M218.581,205.772a.081.081,0,0,0-.031,0l-1.771.7a.128.128,0,0,0-.082.12V209a.129.129,0,0,0,.082.121l1.771.7a.127.127,0,0,0,.094,0l1.771-.7A.132.132,0,0,0,220.5,209v-2.409a.131.131,0,0,0-.082-.12l-1.77-.7A.116.116,0,0,0,218.581,205.772Zm.016.269,1.416.555-1.416.551-1.415-.556Zm-1.641.745,1.512.586v2.134l-1.512-.593Zm3.283,0v2.127l-1.512.593v-2.134Z" fill="#faa2b3"/>
      <path id="np_box_1776232_000000-2" data-name="np box 1776232 000000-2" d="M196.966,281.44a.482.482,0,0,0-.05-.108l-3.662-6a.479.479,0,0,0-.494-.217L184,276.666a.48.48,0,0,0-.39.374l-1.39,6.885a.478.478,0,0,0,.061.344l3.665,5.992a.478.478,0,0,0,.494.218l8.758-1.547a.479.479,0,0,0,.389-.374l1.391-6.882A.5.5,0,0,0,196.966,281.44Zm-.966.232-1.108,5.5-2.93-4.791,1.113-5.505Zm-3.761-5.489-1.188,5.878L183.3,283.43l1.183-5.877Zm2.108,11.935-7.753,1.37-3.128-5.116,7.751-1.37Z" fill="#faa2b3"/>
      <path id="np_box_1776232_000000-3" data-name="np box 1776232 000000-3" d="M208.7,257.764a.34.34,0,0,0-.07-.017l-4.236-.491a.291.291,0,0,0-.292.154l-2.535,4.768a.289.289,0,0,0,.036.327l2.774,3.241a.289.289,0,0,0,.187.1l4.238.487a.29.29,0,0,0,.291-.153l2.535-4.768a.291.291,0,0,0-.035-.327l-2.775-3.241A.292.292,0,0,0,208.7,257.764Zm-.25.547,2.22,2.589-3.389-.39-2.218-2.592Zm-4.034-.254,2.369,2.766-2.244,4.22-2.369-2.765Zm6.5,3.456-2.245,4.222-3.617-.418L207.3,261.1Z" fill="#faa2b3"/>
      <path id="np_box_1776232_000000-4" data-name="np box 1776232 000000-4" d="M208.575,231.994a.151.151,0,0,0-.043.011l-2.449.961a.175.175,0,0,0-.113.164v3.331a.177.177,0,0,0,.114.168l2.449.965a.185.185,0,0,0,.131,0l2.449-.961a.18.18,0,0,0,.114-.168V233.13a.179.179,0,0,0-.114-.168l-2.45-.961A.176.176,0,0,0,208.575,231.994Zm.022.371,1.958.767-1.957.762-1.958-.766Zm-2.269,1.029,2.09.821v2.945l-2.09-.819Zm4.539,0v2.946l-2.09.819v-2.947Z" fill="#faa2b3"/>
    </g>
    <g id="Stars" transform="translate(174 113)">
      <path id="Path_2" data-name="Path 2" d="M186.1,173.188a4.075,4.075,0,1,1,4.075-4.075A4.074,4.074,0,0,1,186.1,173.188Zm0-6.539a2.467,2.467,0,0,0-2.464,2.463c0,1.359.707,2.464,2.066,2.464a2.839,2.839,0,0,0,2.862-2.464A2.467,2.467,0,0,0,186.1,166.649Z" transform="translate(-155.969 -165.038)" fill="#faa3b3"/>
      <path id="Path_3" data-name="Path 3" d="M236.264,253.874a4.075,4.075,0,1,1,4.075-4.075A4.074,4.074,0,0,1,236.264,253.874Zm0-6.539a2.464,2.464,0,1,0,2.464,2.464h0A2.468,2.468,0,0,0,236.264,247.335Z" transform="translate(-155.969 -165.038)" fill="#68ecb3"/>
      <path id="Path_4" data-name="Path 4" d="M162.07,210.7h-1.481v-1.481a1.045,1.045,0,0,0-2.09,0V210.7h-1.485a1.045,1.045,0,1,0,0,2.09h1.481v1.48a1.045,1.045,0,1,0,2.09,0v-1.484h1.481a1.045,1.045,0,0,0,0-2.09Z" transform="translate(-155.969 -165.038)" fill="#ffcf68"/>
      <path id="Path_5" data-name="Path 5" d="M248.819,172.462h-1.48v-1.481a1.046,1.046,0,0,0-2.091,0v1.481h-1.48a1.045,1.045,0,0,0,0,2.09h1.48v1.479a1.046,1.046,0,1,0,2.091,0V174.55h1.48a1.045,1.045,0,1,0,0-2.09Z" transform="translate(-155.969 -165.038)" fill="#6393f5"/>
    </g>
    <g id="Base_line" data-name="Base line" transform="translate(81 358)">
      <path id="Path_178" data-name="Path 178" d="M266.282,386.406H247.961a1.566,1.566,0,1,0,0,3.132h18.321a1.566,1.566,0,0,0,0-3.132Z" transform="translate(-76.801 -386.406)" fill="#f0ead9"/>
      <path id="Path_179" data-name="Path 179" d="M96.687,386.406H78.367a1.566,1.566,0,1,0,0,3.132h18.32a1.566,1.566,0,1,0,0-3.132Z" transform="translate(-76.801 -386.406)" fill="#f0ead9"/>
      <path id="Path_180" data-name="Path 180" d="M240.5,386.406H104.148a1.566,1.566,0,1,0,0,3.132H240.5a1.566,1.566,0,0,0,0-3.132Z" transform="translate(-76.801 -386.406)" fill="#f0ead9"/>
    </g>
  </g>
</svg>
