<svg xmlns="http://www.w3.org/2000/svg" width="243" height="202.447" viewBox="0 0 243 202.447">
  <g id="No_Bookmarks" data-name="No Bookmarks" transform="translate(-66 -188.685)">
    <g id="Background" transform="translate(66 288)">
      <g id="Group_328" data-name="Group 328" opacity="0.8">
        <path id="Rectangle_28" data-name="Rectangle 28" d="M136.509,315.01h153a25,25,0,0,1,25,25h0a25,25,0,0,1-25,25h-153a25,25,0,0,1-25-25h0A25,25,0,0,1,136.509,315.01Z" transform="translate(-71.509 -290.01)" fill="#fcf7ea"/>
        <path id="Rectangle_29" data-name="Rectangle 29" d="M91.509,290.01h163a20,20,0,0,1,20,20h0a20,20,0,0,1-20,20h-163a20,20,0,0,1-20-20h0A20,20,0,0,1,91.509,290.01Z" transform="translate(-71.509 -290.01)" fill="#fcf7ea"/>
        <path id="Rectangle_30" data-name="Rectangle 30" d="M91.509,350.01h163a20,20,0,0,1,20,20h0a20,20,0,0,1-20,20h-163a20,20,0,0,1-20-20h0A20,20,0,0,1,91.509,350.01Z" transform="translate(-71.509 -290.01)" fill="#fcf7ea"/>
      </g>
    </g>
    <g id="Stars" transform="translate(189.027 188.685) rotate(22)">
      <path id="Path_2" data-name="Path 2" d="M186.1,173.188a4.075,4.075,0,1,1,4.075-4.075A4.074,4.074,0,0,1,186.1,173.188Zm0-6.539a2.467,2.467,0,0,0-2.464,2.463c0,1.359.707,2.464,2.066,2.464a2.839,2.839,0,0,0,2.862-2.464A2.467,2.467,0,0,0,186.1,166.649Z" transform="translate(-155.969 -165.038)" fill="#faa3b3"/>
      <path id="Path_3" data-name="Path 3" d="M236.264,253.874a4.075,4.075,0,1,1,4.075-4.075A4.074,4.074,0,0,1,236.264,253.874Zm0-6.539a2.464,2.464,0,1,0,2.464,2.464h0A2.468,2.468,0,0,0,236.264,247.335Z" transform="translate(-155.969 -165.038)" fill="#68ecb3"/>
      <path id="Path_4" data-name="Path 4" d="M162.07,210.7h-1.481v-1.481a1.045,1.045,0,0,0-2.09,0V210.7h-1.485a1.045,1.045,0,1,0,0,2.09h1.481v1.48a1.045,1.045,0,1,0,2.09,0v-1.484h1.481a1.045,1.045,0,0,0,0-2.09Z" transform="translate(-155.969 -165.038)" fill="#ffcf68"/>
      <path id="Path_5" data-name="Path 5" d="M248.819,172.462h-1.48v-1.481a1.046,1.046,0,0,0-2.091,0v1.481h-1.48a1.045,1.045,0,0,0,0,2.09h1.48v1.479a1.046,1.046,0,1,0,2.091,0V174.55h1.48a1.045,1.045,0,1,0,0-2.09Z" transform="translate(-155.969 -165.038)" fill="#6393f5"/>
    </g>
    <g id="Base_line" data-name="Base line" transform="translate(92 388)">
      <path id="Path_178" data-name="Path 178" d="M266.282,386.406H247.961a1.566,1.566,0,1,0,0,3.132h18.321a1.566,1.566,0,0,0,0-3.132Z" transform="translate(-76.801 -386.406)" fill="#f0ead9"/>
      <path id="Path_179" data-name="Path 179" d="M96.687,386.406H78.367a1.566,1.566,0,1,0,0,3.132h18.32a1.566,1.566,0,1,0,0-3.132Z" transform="translate(-76.801 -386.406)" fill="#f0ead9"/>
      <path id="Path_180" data-name="Path 180" d="M240.5,386.406H104.148a1.566,1.566,0,1,0,0,3.132H240.5a1.566,1.566,0,0,0,0-3.132Z" transform="translate(-76.801 -386.406)" fill="#f0ead9"/>
    </g>
    <g id="Group_387" data-name="Group 387" transform="translate(82 199)">
      <path id="Rectangle_912" data-name="Rectangle 912" d="M0,0H44a0,0,0,0,1,0,0V85a0,0,0,0,1,0,0H14A14,14,0,0,1,0,71V0A0,0,0,0,1,0,0Z" transform="translate(72 104)" fill="#f7d7dd"/>
      <rect id="Rectangle_911" data-name="Rectangle 911" width="55" height="69" transform="translate(84 118)" fill="#f7d7dd"/>
      <path id="Rectangle_913" data-name="Rectangle 913" d="M0,0H58a0,0,0,0,1,0,0V13a0,0,0,0,1,0,0H12A12,12,0,0,1,0,1V0A0,0,0,0,1,0,0Z" transform="translate(73 104)" fill="#f7d7dd"/>
      <path id="Path_1703" data-name="Path 1703" d="M378.463,2406.334l7.684,6.655h41.941l-7.606-7.429h-42.02Z" transform="translate(-303 -2295)" fill="#ff7590"/>
      <g id="np_book_1303283_000000" transform="translate(55.202 96)">
        <path id="Path_1699" data-name="Path 1699" d="M16.82,7a1,1,0,0,0-1,1V79.441c-.234,2.621,1.445,5.727,3.848,8.43s5.648,5,9.07,5.125h0a.014.014,0,0,0,.008,0H83.2a1,1,0,0,0,1-1V21.562a1,1,0,0,0-1-1H75.465V8a1,1,0,0,0-1-1Zm2.375,2h54.27V20.562H70.848a1.246,1.246,0,0,0-.1-.1l-7.254-6.543a1,1,0,0,0-.668-.254H20.16a10.539,10.539,0,0,1-2.289-3.852c-.062-.391-.012-.453.078-.539A2.027,2.027,0,0,1,19.2,9ZM17.82,13.949c.27.352.555.707.859,1.063.008.012.02.023.027.035h0a.985.985,0,0,0,.414.477,34.812,34.812,0,0,0,4.547,4.242A16.851,16.851,0,0,0,27.812,22.3V90.871a13.355,13.355,0,0,1-6.648-4.328c-2.18-2.453-3.492-5.477-3.348-6.953v0c0-.027,0-.055,0-.078V13.945Zm4.2,1.715H62.437l5.434,4.9H28.941a14.509,14.509,0,0,1-4.047-2.379,32.914,32.914,0,0,1-2.875-2.523Zm7.793,6.9H82.2V91H29.812Z" fill="#f0365a" fill-rule="evenodd"/>
        <path id="Path_1700" data-name="Path 1700" d="M37.008,37.676a1,1,0,0,0-.719.285,1,1,0,0,0,0,1.426,1.006,1.006,0,0,0,.719.289H75.1a1,1,0,1,0,0-2Z" fill="#f0365a" fill-rule="evenodd"/>
        <path id="Path_1701" data-name="Path 1701" d="M37.008,47.094a.987.987,0,0,0-.715.285,1,1,0,0,0,.715,1.715H75.1a1.021,1.021,0,0,0,.715-.289,1,1,0,0,0-.715-1.711Z" fill="#f0365a" fill-rule="evenodd"/>
        <path id="Path_1702" data-name="Path 1702" d="M45.973,81.2a1,1,0,0,0-.715.289,1,1,0,0,0,0,1.422,1,1,0,0,0,.715.289H66.121a1,1,0,0,0,.715-.289,1,1,0,0,0,0-1.422,1,1,0,0,0-.715-.289Z" fill="#f0365a" fill-rule="evenodd"/>
      </g>
    </g>
    <path id="Path_1705" data-name="Path 1705" d="M1791.434,1789s3.053-34.651,30.907-35.395,35.258-22.643,35.258-22.643" transform="translate(-1632 -1477)" fill="none" stroke="#f0365a" stroke-width="1" stroke-dasharray="2"/>
    <g id="Group_388" data-name="Group 388" transform="matrix(-0.777, -0.629, 0.629, -0.777, 259.231, 590.397)">
      <path id="Path_1704" data-name="Path 1704" d="M1862.782,1726.911l5.606-6.212,6.843,6.794v-22.078l-.975-1.817-9.969-.322-1.984,1.193-.342,22.441Z" transform="translate(-1632.457 -1477.607)" fill="#6393f5" stroke="#707070" stroke-width="1"/>
      <path id="np_mark-it_2663958_000000" d="M36.055,12.5H28.519A3.525,3.525,0,0,0,25,16.018V37.482a.694.694,0,0,0,1.207.465l5.731-6.4,6.419,6.419h0a.694.694,0,0,0,1.214-.485V16.018A3.525,3.525,0,0,0,36.056,12.5Zm2.13,23.31-5.752-5.752h0a.673.673,0,0,0-.993.021L26.389,35.67V18.051h8.327a.694.694,0,0,0,0-1.388H26.389v-.645a2.13,2.13,0,0,1,2.13-2.13h7.536a2.128,2.128,0,0,1,2.13,2.13Z" transform="translate(203.999 212.5)" fill="#0d4ac7"/>
    </g>
  </g>
</svg>
