<svg width="211" height="183" viewBox="0 0 211 183" fill="none" xmlns="http://www.w3.org/2000/svg">
<path d="M20.5103 25.088V38.336H36.2543C37.1503 38.336 37.8756 38.6133 38.4303 39.168C39.0276 39.7227 39.3263 40.448 39.3263 41.344C39.3263 42.112 39.0276 42.7733 38.4303 43.328C37.8756 43.8827 37.1503 44.16 36.2543 44.16H20.5103V60.928C20.5103 61.7813 20.1903 62.5067 19.5503 63.104C18.9529 63.7013 18.2276 64 17.3743 64C16.4783 64 15.7316 63.7013 15.1343 63.104C14.5369 62.5067 14.2383 61.7813 14.2383 60.928V22.272C14.2383 21.4187 14.5369 20.6933 15.1343 20.096C15.7316 19.4987 16.4569 19.2 17.3103 19.2H39.1343C40.0303 19.2 40.7556 19.4773 41.3103 20.032C41.9076 20.5867 42.2063 21.312 42.2063 22.208C42.2063 22.976 41.9076 23.6587 41.3103 24.256C40.7129 24.8107 39.9876 25.088 39.1343 25.088H20.5103ZM62.1413 29.696C63.2506 29.696 64.2106 29.9947 65.0213 30.592C65.8319 31.1467 66.2373 31.8507 66.2373 32.704C66.2373 33.728 65.9599 34.5173 65.4053 35.072C64.8933 35.584 64.2533 35.84 63.4853 35.84C63.1013 35.84 62.5253 35.712 61.7573 35.456C60.8613 35.1573 60.1573 35.008 59.6453 35.008C58.3226 35.008 57.0213 35.4773 55.7413 36.416C54.5039 37.312 53.4799 38.5707 52.6693 40.192C51.9013 41.7707 51.5173 43.5413 51.5173 45.504V60.928C51.5173 61.7813 51.2186 62.5067 50.6213 63.104C50.0666 63.7013 49.3413 64 48.4453 64C47.5493 64 46.8239 63.7227 46.2693 63.168C45.7146 62.5707 45.4373 61.824 45.4373 60.928V33.536C45.4373 32.6827 45.7146 31.9573 46.2693 31.36C46.8666 30.7627 47.5919 30.464 48.4453 30.464C49.3413 30.464 50.0666 30.7627 50.6213 31.36C51.2186 31.9573 51.5173 32.6827 51.5173 33.536V36.8C52.4559 34.7093 53.8639 33.024 55.7413 31.744C57.6186 30.4213 59.7519 29.7387 62.1413 29.696ZM94.7293 30.016C95.6253 30.016 96.3506 30.3147 96.9053 30.912C97.5026 31.4667 97.8013 32.2133 97.8013 33.152V60.928C97.8013 61.7813 97.5026 62.5067 96.9053 63.104C96.3506 63.7013 95.6253 64 94.7293 64C93.8333 64 93.1079 63.7227 92.5533 63.168C91.9986 62.5707 91.7213 61.824 91.7213 60.928V59.264C90.6119 60.7573 89.0973 62.0373 87.1773 63.104C85.2573 64.128 83.1879 64.64 80.9693 64.64C78.0679 64.64 75.4226 63.8933 73.0333 62.4C70.6866 60.9067 68.8306 58.8373 67.4653 56.192C66.1426 53.504 65.4813 50.496 65.4813 47.168C65.4813 43.84 66.1426 40.8533 67.4653 38.208C68.8306 35.52 70.6866 33.4293 73.0333 31.936C75.3799 30.4427 77.9613 29.696 80.7773 29.696C83.0386 29.696 85.1293 30.1653 87.0493 31.104C89.0119 32.0427 90.5693 33.2373 91.7213 34.688V33.152C91.7213 32.256 91.9986 31.5093 92.5533 30.912C93.1079 30.3147 93.8333 30.016 94.7293 30.016ZM81.6733 59.008C83.6786 59.008 85.4493 58.496 86.9853 57.472C88.5639 56.448 89.7799 55.04 90.6333 53.248C91.5293 51.456 91.9773 49.4293 91.9773 47.168C91.9773 44.9493 91.5293 42.944 90.6333 41.152C89.7799 39.36 88.5639 37.952 86.9853 36.928C85.4493 35.8613 83.6786 35.328 81.6733 35.328C79.6679 35.328 77.8759 35.84 76.2973 36.864C74.7613 37.888 73.5453 39.296 72.6493 41.088C71.7959 42.88 71.3693 44.9067 71.3693 47.168C71.3693 49.4293 71.7959 51.456 72.6493 53.248C73.5453 55.04 74.7613 56.448 76.2973 57.472C77.8759 58.496 79.6679 59.008 81.6733 59.008ZM120.334 29.696C128.014 29.696 131.854 34.304 131.854 43.52V60.928C131.854 61.7813 131.556 62.5067 130.958 63.104C130.404 63.7013 129.678 64 128.782 64C127.929 64 127.204 63.7013 126.606 63.104C126.052 62.5067 125.774 61.7813 125.774 60.928V43.584C125.774 41.0667 125.198 39.0613 124.046 37.568C122.894 36.0747 121.017 35.328 118.414 35.328C116.708 35.328 115.15 35.712 113.742 36.48C112.377 37.2053 111.289 38.208 110.478 39.488C109.71 40.7253 109.326 42.0907 109.326 43.584V60.928C109.326 61.7813 109.028 62.5067 108.43 63.104C107.876 63.7013 107.15 64 106.254 64C105.358 64 104.633 63.7227 104.078 63.168C103.524 62.5707 103.246 61.824 103.246 60.928V33.536C103.246 32.6827 103.524 31.9573 104.078 31.36C104.676 30.7627 105.401 30.464 106.254 30.464C107.15 30.464 107.876 30.7627 108.43 31.36C109.028 31.9573 109.326 32.6827 109.326 33.536V35.776C110.436 34.0693 111.972 32.64 113.934 31.488C115.94 30.2933 118.073 29.696 120.334 29.696ZM164.73 58.688C165.37 59.3707 165.69 60.1173 165.69 60.928C165.69 61.7813 165.349 62.5067 164.666 63.104C164.026 63.6587 163.344 63.936 162.618 63.936C161.68 63.936 160.933 63.5947 160.378 62.912L147.77 49.536L143.93 52.992V60.928C143.93 61.7813 143.632 62.5067 143.034 63.104C142.48 63.7013 141.776 64 140.922 64C140.026 64 139.28 63.7013 138.682 63.104C138.128 62.5067 137.85 61.7813 137.85 60.928V19.712C137.85 18.8587 138.128 18.1333 138.682 17.536C139.28 16.9387 140.026 16.64 140.922 16.64C141.776 16.64 142.48 16.9387 143.034 17.536C143.632 18.1333 143.93 18.8587 143.93 19.712V45.696L159.61 31.296C160.336 30.656 161.082 30.336 161.85 30.336C162.576 30.336 163.237 30.656 163.834 31.296C164.432 31.8933 164.73 32.5333 164.73 33.216C164.73 34.0693 164.325 34.8373 163.514 35.52L152.442 45.376L164.73 58.688ZM199.549 47.232C199.549 50.56 198.803 53.5467 197.309 56.192C195.816 58.8373 193.768 60.9067 191.165 62.4C188.605 63.8933 185.768 64.64 182.653 64.64C179.539 64.64 176.68 63.8933 174.077 62.4C171.517 60.9067 169.491 58.8373 167.997 56.192C166.504 53.5467 165.757 50.56 165.757 47.232C165.757 43.904 166.504 40.896 167.997 38.208C169.491 35.52 171.517 33.4293 174.077 31.936C176.68 30.4427 179.539 29.696 182.653 29.696C185.768 29.696 188.605 30.4427 191.165 31.936C193.768 33.4293 195.816 35.52 197.309 38.208C198.803 40.896 199.549 43.904 199.549 47.232ZM193.469 47.232C193.469 44.928 192.979 42.88 191.997 41.088C191.059 39.2533 189.757 37.8453 188.093 36.864C186.472 35.84 184.659 35.328 182.653 35.328C180.648 35.328 178.813 35.84 177.149 36.864C175.528 37.8453 174.227 39.2533 173.245 41.088C172.307 42.88 171.837 44.928 171.837 47.232C171.837 49.4933 172.307 51.52 173.245 53.312C174.227 55.104 175.528 56.512 177.149 57.536C178.813 58.5173 180.648 59.008 182.653 59.008C184.659 59.008 186.472 58.5173 188.093 57.536C189.757 56.512 191.059 55.104 191.997 53.312C192.979 51.52 193.469 49.4933 193.469 47.232Z" fill="#272525"/>
<path d="M78.7159 81.6C78.9932 81.6 79.2172 81.696 79.3879 81.888C79.5799 82.0587 79.6759 82.2827 79.6759 82.56C79.6759 82.816 79.5799 83.04 79.3879 83.232C79.2172 83.4027 78.9932 83.488 78.7159 83.488H68.0599V91.52H77.2759C77.5532 91.52 77.7772 91.6053 77.9479 91.776C78.1399 91.9467 78.2359 92.1707 78.2359 92.448C78.2359 92.7253 78.1399 92.9493 77.9479 93.12C77.7772 93.2907 77.5532 93.376 77.2759 93.376H68.0599V103.04C68.0599 103.317 67.9639 103.552 67.7719 103.744C67.6012 103.915 67.3772 104 67.0999 104C66.8012 104 66.5559 103.915 66.3639 103.744C66.1932 103.552 66.1079 103.317 66.1079 103.04V82.56C66.1079 82.2827 66.1932 82.0587 66.3639 81.888C66.5559 81.696 66.7906 81.6 67.0679 81.6H78.7159ZM97.096 95.808C97.096 97.408 96.744 98.8587 96.04 100.16C95.336 101.461 94.3653 102.485 93.128 103.232C91.8907 103.957 90.5147 104.32 89 104.32C87.4853 104.32 86.1093 103.957 84.872 103.232C83.6347 102.485 82.664 101.461 81.96 100.16C81.256 98.8587 80.904 97.408 80.904 95.808C80.904 94.208 81.256 92.7573 81.96 91.456C82.664 90.1547 83.6347 89.1307 84.872 88.384C86.1093 87.6373 87.4853 87.264 89 87.264C90.5147 87.264 91.8907 87.6373 93.128 88.384C94.3653 89.1307 95.336 90.1547 96.04 91.456C96.744 92.7573 97.096 94.208 97.096 95.808ZM95.176 95.808C95.176 94.528 94.9093 93.376 94.376 92.352C93.8427 91.328 93.096 90.528 92.136 89.952C91.1973 89.3547 90.152 89.056 89 89.056C87.848 89.056 86.8027 89.3547 85.864 89.952C84.9253 90.528 84.1787 91.328 83.624 92.352C83.0907 93.376 82.824 94.528 82.824 95.808C82.824 97.0667 83.0907 98.208 83.624 99.232C84.1787 100.256 84.9253 101.067 85.864 101.664C86.8027 102.24 87.848 102.528 89 102.528C90.152 102.528 91.1973 102.24 92.136 101.664C93.096 101.088 93.8427 100.288 94.376 99.264C94.9093 98.24 95.176 97.088 95.176 95.808ZM114.835 95.808C114.835 97.408 114.483 98.8587 113.779 100.16C113.075 101.461 112.104 102.485 110.867 103.232C109.63 103.957 108.254 104.32 106.739 104.32C105.224 104.32 103.848 103.957 102.611 103.232C101.374 102.485 100.403 101.461 99.6991 100.16C98.9951 98.8587 98.6431 97.408 98.6431 95.808C98.6431 94.208 98.9951 92.7573 99.6991 91.456C100.403 90.1547 101.374 89.1307 102.611 88.384C103.848 87.6373 105.224 87.264 106.739 87.264C108.254 87.264 109.63 87.6373 110.867 88.384C112.104 89.1307 113.075 90.1547 113.779 91.456C114.483 92.7573 114.835 94.208 114.835 95.808ZM112.915 95.808C112.915 94.528 112.648 93.376 112.115 92.352C111.582 91.328 110.835 90.528 109.875 89.952C108.936 89.3547 107.891 89.056 106.739 89.056C105.587 89.056 104.542 89.3547 103.603 89.952C102.664 90.528 101.918 91.328 101.363 92.352C100.83 93.376 100.563 94.528 100.563 95.808C100.563 97.0667 100.83 98.208 101.363 99.232C101.918 100.256 102.664 101.067 103.603 101.664C104.542 102.24 105.587 102.528 106.739 102.528C107.891 102.528 108.936 102.24 109.875 101.664C110.835 101.088 111.582 100.288 112.115 99.264C112.648 98.24 112.915 97.088 112.915 95.808ZM130.75 80.32C131.028 80.32 131.252 80.416 131.422 80.608C131.614 80.7787 131.71 81.0027 131.71 81.28V103.04C131.71 103.317 131.614 103.552 131.422 103.744C131.252 103.915 131.028 104 130.75 104C130.473 104 130.238 103.915 130.046 103.744C129.876 103.552 129.79 103.317 129.79 103.04V100.8C129.257 101.781 128.457 102.613 127.39 103.296C126.345 103.979 125.182 104.32 123.902 104.32C122.494 104.32 121.214 103.957 120.062 103.232C118.932 102.485 118.036 101.461 117.374 100.16C116.713 98.8587 116.382 97.3973 116.382 95.776C116.382 94.176 116.713 92.7253 117.374 91.424C118.036 90.1227 118.932 89.1093 120.062 88.384C121.214 87.6373 122.484 87.264 123.87 87.264C125.129 87.264 126.292 87.584 127.358 88.224C128.425 88.8427 129.236 89.6533 129.79 90.656V81.28C129.79 81.0027 129.876 80.7787 130.046 80.608C130.238 80.416 130.473 80.32 130.75 80.32ZM124.094 102.528C125.204 102.528 126.196 102.24 127.07 101.664C127.966 101.088 128.66 100.288 129.15 99.264C129.662 98.2187 129.918 97.056 129.918 95.776C129.918 94.5173 129.662 93.376 129.15 92.352C128.66 91.328 127.966 90.528 127.07 89.952C126.196 89.3547 125.204 89.056 124.094 89.056C122.985 89.056 121.982 89.3547 121.086 89.952C120.212 90.528 119.518 91.328 119.006 92.352C118.516 93.376 118.27 94.5173 118.27 95.776C118.27 97.056 118.516 98.208 119.006 99.232C119.518 100.256 120.212 101.067 121.086 101.664C121.982 102.24 122.985 102.528 124.094 102.528ZM134.5 101.408C134.329 101.131 134.244 100.896 134.244 100.704C134.244 100.427 134.383 100.213 134.66 100.064C134.788 99.936 134.959 99.872 135.172 99.872C135.428 99.872 135.663 99.9787 135.876 100.192C137.135 101.856 138.809 102.688 140.9 102.688C141.924 102.688 142.809 102.453 143.556 101.984C144.324 101.493 144.708 100.789 144.708 99.872C144.708 98.976 144.356 98.304 143.652 97.856C142.948 97.408 141.967 97.024 140.708 96.704C138.937 96.256 137.551 95.68 136.548 94.976C135.545 94.2507 135.044 93.1947 135.044 91.808C135.044 90.9333 135.289 90.1547 135.78 89.472C136.271 88.768 136.932 88.224 137.764 87.84C138.617 87.456 139.577 87.264 140.644 87.264C141.561 87.264 142.479 87.4453 143.396 87.808C144.335 88.1493 145.135 88.704 145.796 89.472C145.988 89.6213 146.084 89.8347 146.084 90.112C146.084 90.368 145.977 90.592 145.764 90.784C145.615 90.912 145.423 90.976 145.188 90.976C144.975 90.976 144.783 90.8907 144.612 90.72C144.1 90.144 143.492 89.7067 142.788 89.408C142.084 89.1093 141.327 88.96 140.516 88.96C139.513 88.96 138.649 89.1947 137.924 89.664C137.22 90.1333 136.868 90.8373 136.868 91.776C136.911 92.6293 137.295 93.28 138.02 93.728C138.767 94.176 139.855 94.5813 141.284 94.944C142.393 95.2213 143.311 95.5307 144.036 95.872C144.761 96.2133 145.348 96.6933 145.796 97.312C146.265 97.9307 146.5 98.752 146.5 99.776C146.5 101.163 145.945 102.272 144.836 103.104C143.727 103.915 142.351 104.32 140.708 104.32C138.105 104.32 136.036 103.349 134.5 101.408Z" fill="#272525"/>
<path d="M198.072 148.606C198.068 148.56 198.068 148.514 198.062 148.469C198.06 148.449 198.053 148.43 198.051 148.41C198.002 148.105 197.901 147.811 197.744 147.546C197.739 147.538 197.732 147.53 197.728 147.523C197.676 147.438 197.619 147.355 197.557 147.277C197.551 147.27 197.545 147.265 197.54 147.259C196.987 146.592 196.133 146.347 195.358 146.638L195.351 146.641L195.217 146.691C195.211 146.694 195.205 146.696 195.199 146.698C195.073 146.745 194.94 146.793 194.789 146.847L194.733 146.868C194.578 146.923 194.414 146.981 194.274 147.028L194.253 147.035C194.25 147.036 194.247 147.038 194.244 147.038L194.215 147.047L192.984 147.445L192.415 147.613C192.23 147.667 192.039 147.72 191.857 147.769L191.849 147.771C191.847 147.771 191.846 147.772 191.845 147.772L191.769 147.792L191.744 147.798C191.582 147.842 191.436 147.881 191.292 147.917C191.278 147.92 191.263 147.924 191.248 147.928L191.17 147.948L191.066 147.974C190.903 148.014 190.766 148.047 190.633 148.079L190.397 148.134C190.257 148.166 190.116 148.196 189.975 148.227L189.755 148.275C189.754 148.276 189.752 148.276 189.751 148.276L189.744 148.277C189.668 148.293 189.582 148.31 189.501 148.326C189.407 148.345 189.314 148.364 189.218 148.383L189.101 148.407C188.883 148.448 188.661 148.489 188.453 148.525L188.448 148.526C188.444 148.527 188.44 148.527 188.436 148.528L188.232 148.562C188.206 148.566 188.18 148.57 188.154 148.575C188.022 148.597 187.89 148.619 187.763 148.638L187.607 148.662L187.492 148.679C187.395 148.693 187.294 148.707 187.193 148.721C187.145 148.728 187.097 148.735 187.049 148.741L186.844 148.768L186.772 148.778C186.619 148.798 186.453 148.817 186.286 148.836L186.159 148.851L186.067 148.861C186.063 148.862 186.06 148.862 186.058 148.862L186.051 148.862C185.956 148.872 185.851 148.882 185.75 148.891C185.617 148.904 185.482 148.919 185.354 148.93L185.347 148.93C185.345 148.93 185.344 148.931 185.344 148.931L185.297 148.934L185.213 148.941C185.01 148.958 184.807 148.973 184.613 148.986L184.602 148.987L184.338 149.003C184.198 149.011 184.055 149.018 183.91 149.025C183.89 149.025 183.869 149.027 183.85 149.028H183.847C183.843 149.028 183.84 149.028 183.836 149.028L183.671 149.035L183.556 149.039C183.554 149.039 183.551 149.039 183.549 149.039H183.548C183.389 149.045 183.221 149.05 183.049 149.053L182.825 149.057L182.775 149.058C182.775 149.058 182.774 149.058 182.774 149.058L182.763 149.059C182.661 149.06 182.548 149.06 182.434 149.061C182.415 149.061 182.396 149.061 182.377 149.061H182.374C182.373 149.061 182.373 149.061 182.372 149.061H182.356L182.113 149.061L182.053 149.061H182.046H182.043H182.033L181.982 149.061C181.765 149.058 181.533 149.052 181.302 149.045C181.278 149.044 181.251 149.044 181.228 149.044H181.225C181.219 149.043 181.215 149.043 181.209 149.043L181.036 149.035L180.974 149.033C180.785 149.025 180.596 149.016 180.419 149.006L180.416 149.006C180.414 149.006 180.412 149.006 180.41 149.006L180.102 148.986C180.041 148.982 179.981 148.977 179.919 148.972C179.81 148.965 179.699 148.957 179.593 148.948L179.502 148.94L179.263 148.92C179.116 148.906 178.958 148.889 178.802 148.872C178.773 148.87 178.746 148.867 178.718 148.864L178.444 148.834C178.443 148.833 178.441 148.833 178.439 148.833L178.432 148.833C178.428 148.832 178.423 148.832 178.419 148.831C178.156 148.8 177.892 148.766 177.648 148.731L177.628 148.728C177.624 148.728 177.62 148.727 177.617 148.727L177.536 148.714L177.49 148.707C177.254 148.672 177.02 148.635 176.802 148.598L176.794 148.597C176.79 148.596 176.787 148.596 176.784 148.595L176.489 148.543C176.304 148.509 176.118 148.475 175.932 148.438L175.594 148.369C175.448 148.338 175.295 148.304 175.144 148.27C175.116 148.263 175.087 148.258 175.059 148.251L174.735 148.177C174.733 148.177 174.732 148.176 174.73 148.176L174.723 148.175C174.597 148.145 174.462 148.11 174.328 148.076C174.247 148.055 174.169 148.037 174.085 148.014L173.873 147.96C173.872 147.96 173.872 147.96 173.871 147.96L173.852 147.955C173.681 147.909 173.499 147.858 173.316 147.805C173.22 147.778 173.125 147.751 173.033 147.723L172.99 147.71L172.755 147.638C172.709 147.624 172.662 147.608 172.616 147.594C172.459 147.545 172.301 147.497 172.154 147.449L171.866 147.351L171.8 147.33C171.781 147.323 171.76 147.315 171.74 147.309C171.566 147.249 171.407 147.193 171.258 147.139C171.253 147.138 171.249 147.136 171.246 147.135L171.099 147.081L170.91 147.012C170.906 147.011 170.903 147.009 170.9 147.008L170.895 147.006C170.713 146.938 170.519 146.862 170.322 146.785L170.215 146.743L170.017 146.665C170.017 146.664 170.015 146.664 170.014 146.663L169.999 146.657C169.848 146.596 169.691 146.531 169.533 146.464C169.406 146.41 169.281 146.356 169.159 146.303L169.056 146.255C168.768 146.127 168.51 146.008 168.268 145.893L167.93 145.728C167.738 145.635 167.546 145.539 167.377 145.452L167.364 145.446C167.36 145.443 167.356 145.442 167.352 145.439L166.771 145.132L166.726 145.108V145.107L166.725 145.107L166.192 144.712C162.728 142.789 158.389 139.783 154.988 135.483C147.152 126.897 139.363 123.172 132.929 121.756C132.929 121.755 132.928 121.755 132.927 121.755C132.649 121.694 132.374 121.638 132.101 121.585C132.09 121.582 132.079 121.581 132.068 121.579C131.806 121.528 131.545 121.482 131.288 121.438C131.264 121.434 131.241 121.431 131.218 121.428C130.973 121.387 130.731 121.349 130.491 121.315C130.454 121.31 130.418 121.306 130.381 121.301C130.156 121.27 129.932 121.24 129.711 121.214C129.658 121.208 129.606 121.203 129.553 121.197C129.349 121.174 129.147 121.152 128.947 121.134C128.879 121.128 128.812 121.123 128.743 121.117C128.562 121.102 128.38 121.086 128.202 121.074C128.111 121.067 128.022 121.064 127.932 121.058C127.779 121.049 127.625 121.038 127.475 121.032C127.347 121.025 127.221 121.023 127.095 121.019C126.985 121.015 126.875 121.01 126.767 121.008C126.534 121.003 126.304 121 126.077 121C116.122 121 108.384 125.667 104.783 129.664C101.182 125.667 93.4438 121 83.4878 121C83.2615 121 83.0316 121.003 82.7983 121.008C82.6904 121.01 82.5804 121.015 82.471 121.019C82.3442 121.023 82.2192 121.026 82.0909 121.032C81.94 121.038 81.7862 121.049 81.6335 121.058C81.5432 121.064 81.4546 121.067 81.3638 121.074C81.1856 121.086 81.0041 121.102 80.823 121.117C80.7541 121.123 80.6871 121.128 80.6182 121.134C80.4188 121.152 80.2158 121.175 80.0125 121.197C79.9596 121.203 79.9079 121.208 79.8547 121.214C79.6338 121.24 79.4097 121.27 79.1845 121.301C79.1473 121.306 79.1108 121.31 79.074 121.315C78.8342 121.349 78.5922 121.387 78.3477 121.428C78.324 121.432 78.301 121.435 78.277 121.438C78.0201 121.481 77.7595 121.528 77.4974 121.579C77.4869 121.581 77.4756 121.582 77.4643 121.585C77.1917 121.638 76.9165 121.695 76.6384 121.755C76.6377 121.756 76.6366 121.756 76.6359 121.756C70.2023 123.172 62.4134 126.897 54.5774 135.483C51.176 139.783 46.8369 142.789 43.3736 144.712L42.84 145.107L42.8393 145.107V145.108L42.7945 145.132L42.2135 145.439C42.2092 145.442 42.2048 145.443 42.2012 145.446L42.1891 145.452C42.0197 145.539 41.8269 145.635 41.6359 145.728L41.2973 145.893C41.0561 146.008 40.7973 146.127 40.5098 146.255L40.4063 146.303C40.2849 146.356 40.1584 146.41 40.0323 146.464C39.8742 146.531 39.7178 146.596 39.5669 146.657L39.5513 146.663C39.5502 146.664 39.5491 146.664 39.5483 146.665L39.3501 146.743L39.2437 146.785C39.0472 146.862 38.8526 146.938 38.6711 147.006L38.666 147.008C38.6627 147.009 38.6595 147.011 38.6558 147.012L38.467 147.081L38.3198 147.135C38.3158 147.136 38.3118 147.138 38.3081 147.139C38.1591 147.193 37.9998 147.249 37.8256 147.309C37.8052 147.315 37.7844 147.323 37.7655 147.33L37.6995 147.351L37.4116 147.449C37.2651 147.497 37.1069 147.545 36.9498 147.594C36.9036 147.608 36.8569 147.624 36.8106 147.638L36.5752 147.71L36.5329 147.723C36.4407 147.751 36.3456 147.778 36.2501 147.805C36.0668 147.858 35.8849 147.909 35.714 147.955L35.6943 147.96C35.694 147.96 35.694 147.96 35.6932 147.96L35.4811 148.014C35.3973 148.036 35.3189 148.055 35.2377 148.076C35.1043 148.11 34.9683 148.145 34.8426 148.175L34.8361 148.176C34.8342 148.176 34.8328 148.177 34.831 148.177L34.507 148.251C34.4789 148.258 34.4505 148.263 34.4224 148.27C34.2708 148.304 34.1177 148.338 33.9716 148.369L33.6337 148.438C33.4475 148.475 33.262 148.51 33.0772 148.543L32.782 148.595C32.7788 148.596 32.7755 148.596 32.7718 148.597L32.7638 148.598C32.5459 148.635 32.3115 148.672 32.0765 148.707L32.0298 148.714L31.9485 148.727C31.9449 148.727 31.9413 148.728 31.938 148.728L31.9183 148.731C31.6737 148.766 31.4099 148.8 31.1475 148.831C31.1424 148.831 31.138 148.832 31.134 148.833L31.1267 148.833C31.1249 148.834 31.1234 148.834 31.1216 148.834L30.8483 148.864C30.8202 148.867 30.7922 148.869 30.7645 148.872C30.6081 148.889 30.4507 148.906 30.3031 148.92L30.0636 148.94L29.9732 148.948C29.8668 148.957 29.7564 148.965 29.6467 148.972C29.5851 148.977 29.5242 148.982 29.4637 148.986L29.1558 149.006C29.154 149.006 29.1521 149.006 29.15 149.006L29.1474 149.006C28.9696 149.016 28.7808 149.026 28.5916 149.033L28.5304 149.035L28.3566 149.043C28.3511 149.043 28.3467 149.043 28.3409 149.044H28.3383C28.3146 149.044 28.2884 149.044 28.2644 149.045C28.0322 149.052 27.8011 149.058 27.5843 149.061L27.5325 149.061H27.5238H27.5202H27.5132L27.4535 149.061L27.21 149.061H27.194C27.1932 149.061 27.1932 149.061 27.1922 149.061H27.1889C27.1703 149.061 27.151 149.061 27.132 149.061C27.019 149.06 26.905 149.06 26.8033 149.059L26.7927 149.058C26.7924 149.058 26.7916 149.058 26.7916 149.058L26.741 149.057L26.5168 149.053C26.3452 149.05 26.1775 149.045 26.0183 149.039H26.0175C26.015 149.039 26.0124 149.039 26.0103 149.039L25.8955 149.035L25.73 149.028C25.726 149.028 25.7227 149.028 25.7198 149.028H25.7165C25.6976 149.027 25.6761 149.025 25.6567 149.025C25.5113 149.018 25.3681 149.011 25.2285 149.003L24.9643 148.987L24.9537 148.986C24.7598 148.973 24.5561 148.958 24.3538 148.941L24.2693 148.934L24.2226 148.931C24.2219 148.931 24.2205 148.93 24.2194 148.93L24.2121 148.93C24.0845 148.919 23.9489 148.904 23.8159 148.891C23.7161 148.881 23.6111 148.872 23.5149 148.862L23.5087 148.862C23.5058 148.862 23.5025 148.862 23.4996 148.861L23.407 148.851L23.2805 148.836C23.1129 148.817 22.9471 148.798 22.794 148.778L22.7222 148.768L22.5174 148.741C22.47 148.735 22.4215 148.728 22.3734 148.721C22.2732 148.707 22.1715 148.693 22.0746 148.679L21.9598 148.662L21.8027 148.638C21.6759 148.618 21.544 148.597 21.4117 148.575C21.3858 148.571 21.3592 148.567 21.3337 148.562L21.1296 148.528C21.1259 148.528 21.1223 148.527 21.1183 148.526L21.1132 148.525C20.9044 148.489 20.6835 148.449 20.4648 148.407L20.3478 148.383C20.252 148.364 20.1591 148.345 20.0654 148.326C19.9845 148.309 19.8985 148.293 19.8219 148.277L19.8147 148.276C19.8139 148.275 19.8125 148.275 19.8114 148.275L19.5905 148.227C19.4502 148.196 19.3088 148.166 19.1696 148.134L18.9334 148.079C18.8 148.047 18.663 148.014 18.5005 147.974L18.3962 147.948L18.3182 147.928C18.3037 147.924 18.2884 147.92 18.2745 147.917C18.1313 147.88 17.9848 147.842 17.8222 147.798L17.7978 147.792L17.722 147.772C17.7209 147.772 17.7195 147.771 17.718 147.771L17.7096 147.769C17.5285 147.72 17.3372 147.666 17.1513 147.613L16.5827 147.445L15.3513 147.047L15.3225 147.038C15.3192 147.038 15.3159 147.036 15.313 147.035L15.2919 147.028C15.1527 146.981 14.9883 146.923 14.8334 146.868L14.7776 146.847C14.626 146.793 14.493 146.744 14.3673 146.698C14.3614 146.696 14.3553 146.694 14.3494 146.691L14.2149 146.641L14.2077 146.638C13.4336 146.347 12.5786 146.592 12.0261 147.259C12.0206 147.266 12.0144 147.271 12.0093 147.277C11.9466 147.355 11.8901 147.438 11.8384 147.523C11.8333 147.531 11.8271 147.538 11.8223 147.546C11.6649 147.811 11.5643 148.105 11.5155 148.41C11.5126 148.43 11.506 148.449 11.5038 148.469C11.4976 148.514 11.498 148.56 11.4943 148.606C11.463 148.998 11.5173 149.4 11.6733 149.772C21.3581 172.939 40.1515 176.398 50.493 176.398C55.2542 176.398 58.474 175.668 58.4897 175.664L58.4908 175.664H58.4915L56.9201 178.921C56.9193 178.922 56.9182 178.924 56.9175 178.925L56.8388 179.09C56.5811 179.623 56.529 180.239 56.6751 180.804C56.6795 180.822 56.6846 180.839 56.6897 180.856C56.7404 181.036 56.8104 181.21 56.9015 181.375C56.9426 181.449 56.9889 181.518 57.037 181.585C57.0549 181.61 57.0724 181.634 57.091 181.658C57.2473 181.861 57.4328 182.029 57.6384 182.158C57.6628 182.173 57.6869 182.188 57.7109 182.202C57.9092 182.315 58.1245 182.391 58.3494 182.429C58.4234 182.441 58.4974 182.451 58.5739 182.455C58.6206 182.457 58.6672 182.463 58.7142 182.462C81.0256 181.789 92.2535 174.689 97.7428 168.851C102.198 164.113 103.841 159.416 104.443 156.764L104.784 156.765L105.126 156.764C105.728 159.416 107.371 164.113 111.826 168.851C117.315 174.689 128.543 181.789 150.854 182.462C150.901 182.463 150.948 182.457 150.995 182.455C151.071 182.451 151.146 182.442 151.219 182.429C151.444 182.391 151.659 182.315 151.858 182.202C151.882 182.188 151.906 182.173 151.93 182.158C152.136 182.029 152.321 181.861 152.478 181.658C152.496 181.634 152.514 181.61 152.532 181.585C152.579 181.518 152.626 181.449 152.667 181.375C152.758 181.211 152.828 181.036 152.879 180.856C152.883 180.839 152.889 180.822 152.893 180.804C153.04 180.239 152.987 179.623 152.73 179.09L152.651 178.925C152.65 178.924 152.649 178.922 152.648 178.921L151.077 175.664H151.077L151.079 175.664C151.094 175.668 154.315 176.398 159.076 176.398C169.417 176.398 188.211 172.938 197.896 149.772C198.049 149.4 198.103 148.998 198.072 148.606Z" fill="#945C2B"/>
<path d="M80.2154 176.373C65.9741 176.373 54.4289 163.64 54.4289 147.934C54.4289 141.647 56.2823 135.839 59.4146 131.131C57.7642 132.532 56.0985 134.126 54.4321 135.941C51.0424 140.2 46.718 143.177 43.2665 145.081L42.7347 145.471L42.734 145.472V145.472L42.6893 145.496L42.1104 145.801C42.106 145.803 42.1017 145.805 42.098 145.807L42.0861 145.814C41.9172 145.899 41.725 145.994 41.5347 146.087L41.1973 146.25C40.9568 146.363 40.699 146.481 40.4124 146.609L40.3093 146.655C40.1883 146.709 40.0623 146.762 39.9366 146.815C39.779 146.881 39.6232 146.946 39.4728 147.007L39.4572 147.013C39.4561 147.013 39.455 147.014 39.4543 147.014L39.2567 147.092L39.1506 147.133C38.9549 147.21 38.7609 147.285 38.58 147.352L38.5749 147.354C38.5717 147.355 38.5684 147.357 38.5648 147.358L38.3766 147.426L38.2299 147.48C38.2259 147.481 38.2219 147.483 38.2183 147.484C38.0697 147.538 37.911 147.592 37.7374 147.652C37.7171 147.659 37.6964 147.666 37.6775 147.673L37.6117 147.694L37.3248 147.79C37.1788 147.838 37.0211 147.886 36.8646 147.934C36.8185 147.949 36.772 147.964 36.7259 147.978L36.4912 148.049L36.4491 148.062C36.3572 148.09 36.2624 148.116 36.1673 148.144C35.9846 148.196 35.8033 148.247 35.633 148.292L35.6134 148.297C35.613 148.297 35.613 148.297 35.6123 148.297L35.4009 148.351C35.3174 148.372 35.2393 148.391 35.1583 148.411C35.0253 148.445 34.8899 148.48 34.7646 148.509L34.758 148.511C34.7562 148.511 34.7547 148.511 34.7529 148.511L34.43 148.585C34.4021 148.592 34.3737 148.597 34.3458 148.603C34.1947 148.637 34.0421 148.671 33.8965 148.702L33.5598 148.77C33.3742 148.807 33.1893 148.841 33.0052 148.874L32.711 148.926C32.7077 148.926 32.7044 148.927 32.7008 148.927L32.6928 148.928C32.4756 148.965 32.2421 149.002 32.0078 149.036L31.9613 149.043L31.8803 149.056C31.8767 149.056 31.8731 149.057 31.8698 149.057L31.8502 149.06C31.6065 149.095 31.3435 149.128 31.082 149.159C31.0769 149.159 31.0726 149.16 31.0686 149.161L31.0613 149.161C31.0595 149.162 31.058 149.162 31.0562 149.162L30.7838 149.191C30.7558 149.195 30.7279 149.197 30.7003 149.2C30.5445 149.217 30.3876 149.234 30.2405 149.247L30.0018 149.268L29.9118 149.275C29.8057 149.284 29.6957 149.292 29.5863 149.299C29.5249 149.304 29.4643 149.309 29.404 149.313L29.0971 149.332C29.0953 149.332 29.0935 149.332 29.0913 149.332L29.0887 149.333C28.9115 149.343 28.7233 149.352 28.5348 149.359L28.4738 149.362L28.3006 149.369C28.2951 149.369 28.2908 149.369 28.285 149.37H28.2824C28.2588 149.371 28.2327 149.371 28.2087 149.371C27.9773 149.378 27.7471 149.384 27.5309 149.387L27.4794 149.387H27.4707H27.467H27.4601H27.3991L27.1565 149.387H27.1405C27.1398 149.387 27.1398 149.387 27.1387 149.387H27.1354C27.1169 149.387 27.0976 149.387 27.0788 149.387C26.9662 149.387 26.8525 149.387 26.7511 149.385L26.7406 149.385C26.7402 149.385 26.7395 149.385 26.7395 149.385L26.689 149.384L26.4657 149.38C26.2946 149.376 26.1275 149.372 25.9688 149.366H25.9681C25.9655 149.366 25.963 149.366 25.9608 149.366L25.8464 149.361L25.6815 149.355C25.6775 149.354 25.6742 149.354 25.6713 149.354H25.6681C25.6492 149.354 25.6277 149.352 25.6085 149.351C25.4636 149.344 25.3208 149.338 25.1817 149.33L24.9184 149.314L24.9079 149.313C24.7146 149.3 24.5116 149.286 24.31 149.269L24.2258 149.262L24.1793 149.258C24.1786 149.258 24.1771 149.258 24.176 149.258L24.1687 149.258C24.0416 149.247 23.9065 149.232 23.7739 149.219C23.6744 149.209 23.5698 149.201 23.4739 149.191L23.4678 149.19C23.4649 149.19 23.4616 149.19 23.4587 149.189L23.3664 149.179L23.2404 149.165C23.0733 149.146 22.9081 149.127 22.7555 149.107L22.684 149.098L22.4798 149.071C22.4326 149.064 22.3843 149.057 22.3364 149.051C22.2365 149.037 22.1352 149.023 22.0385 149.009L21.9241 148.992L21.7676 148.969C21.6412 148.949 21.5097 148.927 21.3779 148.906C21.3521 148.902 21.3256 148.898 21.3001 148.893L21.0968 148.86C21.0931 148.859 21.0895 148.859 21.0855 148.858L21.0804 148.857C20.8723 148.821 20.6522 148.781 20.4343 148.74L20.3177 148.716C20.2222 148.697 20.1295 148.679 20.0362 148.66C19.9556 148.643 19.8698 148.627 19.7936 148.611L19.7863 148.61C19.7856 148.609 19.7841 148.609 19.783 148.609L19.5629 148.562C19.4231 148.531 19.2822 148.501 19.1434 148.469L18.9081 148.415C18.7751 148.384 18.6386 148.35 18.4766 148.311L18.3727 148.285L18.295 148.265C18.2805 148.262 18.2652 148.258 18.2514 148.254C18.1087 148.218 17.9627 148.18 17.8007 148.137L17.7763 148.131L17.7008 148.111C17.6997 148.111 17.6982 148.11 17.6968 148.11L17.6884 148.108C17.5079 148.059 17.3172 148.006 17.132 147.953L16.5654 147.787L15.3381 147.393L15.3094 147.385C15.3062 147.384 15.3029 147.382 15.3 147.381L15.2789 147.375C15.1402 147.327 14.9764 147.271 14.822 147.215L14.7664 147.195C14.6153 147.141 14.4828 147.093 14.3575 147.047C14.3517 147.045 14.3455 147.043 14.3397 147.041L14.2056 146.991L14.1984 146.988C13.4269 146.7 12.5749 146.943 12.0242 147.603C12.0188 147.61 12.0126 147.614 12.0075 147.621C11.9451 147.698 11.8888 147.78 11.8372 147.864C11.8321 147.872 11.8259 147.88 11.8212 147.887C11.6643 148.149 11.5641 148.441 11.5154 148.743C11.5125 148.763 11.5059 148.781 11.5038 148.801C11.4976 148.846 11.4979 148.891 11.4943 148.937C11.4631 149.325 11.5172 149.723 11.6727 150.092C21.3245 173.032 40.0539 176.457 50.3602 176.457C55.1052 176.457 58.3141 175.735 58.3297 175.731L58.3308 175.731H58.3315L56.7654 178.956C56.7647 178.957 56.7636 178.959 56.7628 178.96L56.6844 179.123C56.4276 179.651 56.3757 180.261 56.5213 180.821C56.5257 180.838 56.5308 180.855 56.5358 180.872C56.5863 181.05 56.6561 181.223 56.7469 181.386C56.7879 181.459 56.834 181.528 56.882 181.594C56.8998 181.619 56.9172 181.643 56.9357 181.667C57.0915 181.867 57.2764 182.033 57.4813 182.161C57.5056 182.176 57.5296 182.19 57.5535 182.205C57.7511 182.316 57.9658 182.392 58.1899 182.43C58.2636 182.442 58.3373 182.452 58.4136 182.455C58.4601 182.458 58.5066 182.463 58.5534 182.462C78.8864 181.852 89.9787 175.922 95.9121 170.491C91.563 174.177 86.1233 176.373 80.2154 176.373Z" fill="#844719"/>
<path d="M198.036 149.273C198.042 149.244 198.048 149.216 198.052 149.187C198.066 149.096 198.074 149.005 198.077 148.914C198.078 148.909 198.078 148.904 198.079 148.899C198.081 148.802 198.079 148.704 198.071 148.607C198.067 148.562 198.068 148.515 198.062 148.47C198.061 148.466 198.06 148.461 198.059 148.457C198.057 148.441 198.052 148.426 198.05 148.41C198.028 148.272 197.992 148.138 197.948 148.007C197.939 147.982 197.932 147.957 197.922 147.932C197.874 147.799 197.816 147.669 197.743 147.547C197.738 147.539 197.732 147.531 197.727 147.524C197.675 147.439 197.619 147.356 197.556 147.278C197.549 147.27 197.541 147.264 197.534 147.255C197.259 146.924 196.909 146.698 196.531 146.59C196.527 146.589 196.523 146.589 196.519 146.588C196.428 146.562 196.336 146.543 196.243 146.532C196.222 146.529 196.202 146.531 196.182 146.529C196.104 146.522 196.026 146.516 195.948 146.519C195.904 146.521 195.86 146.53 195.816 146.535C195.761 146.541 195.706 146.544 195.651 146.555C195.552 146.575 195.454 146.603 195.357 146.639L195.215 146.692C195.204 146.696 195.192 146.7 195.181 146.704C195.06 146.749 194.932 146.796 194.786 146.848L194.73 146.869C194.576 146.924 194.411 146.982 194.272 147.029L194.25 147.037C194.247 147.037 194.244 147.039 194.242 147.039L194.217 147.047L192.981 147.446L192.412 147.614C192.227 147.668 192.036 147.721 191.854 147.77L191.845 147.772C191.843 147.773 191.842 147.773 191.841 147.774L191.804 147.783L191.741 147.8C191.581 147.843 191.436 147.881 191.294 147.917C191.292 147.917 191.29 147.918 191.289 147.918C191.275 147.922 191.26 147.926 191.245 147.929L191.167 147.949L191.062 147.975C190.899 148.015 190.762 148.048 190.629 148.08L190.393 148.135C190.253 148.167 190.112 148.198 189.971 148.228L189.75 148.276C189.749 148.277 189.748 148.277 189.747 148.277L189.74 148.278C189.694 148.288 189.643 148.298 189.594 148.307C189.468 148.333 189.343 148.359 189.214 148.384L189.097 148.407C188.879 148.449 188.657 148.49 188.449 148.526L188.444 148.527C188.44 148.527 188.436 148.528 188.432 148.529L188.228 148.563C188.22 148.564 188.212 148.566 188.204 148.566C188.052 148.592 187.903 148.616 187.758 148.639L187.602 148.662L187.487 148.68C187.39 148.694 187.289 148.708 187.188 148.722C187.14 148.729 187.092 148.736 187.044 148.742L186.793 148.776L186.768 148.779C186.615 148.798 186.449 148.818 186.281 148.837L186.155 148.851L186.062 148.862C186.059 148.862 186.056 148.862 186.053 148.863L186.047 148.863C186.004 148.867 185.959 148.872 185.914 148.876C185.724 148.896 185.532 148.915 185.35 148.931L185.342 148.931C185.341 148.931 185.34 148.932 185.339 148.932L185.323 148.933L185.208 148.942C185.005 148.959 184.802 148.974 184.608 148.987L184.597 148.988L184.333 149.004C184.215 149.011 184.092 149.017 183.969 149.022C183.928 149.024 183.885 149.026 183.845 149.028H183.842C183.838 149.028 183.835 149.029 183.832 149.029L183.666 149.035L183.551 149.04C183.549 149.04 183.546 149.04 183.544 149.04H183.543C183.384 149.046 183.216 149.05 183.044 149.054L182.947 149.056L182.77 149.06C182.769 149.06 182.769 149.06 182.768 149.06L182.758 149.06C182.696 149.06 182.626 149.061 182.558 149.061C182.496 149.062 182.433 149.062 182.372 149.062H182.369C182.368 149.062 182.368 149.062 182.367 149.062H182.351H182.247L182.097 149.062L182.048 149.062H182.041H182.037H182.028L181.976 149.062C181.79 149.06 181.591 149.054 181.392 149.048C181.337 149.046 181.277 149.046 181.222 149.045H181.22C181.214 149.044 181.209 149.044 181.204 149.044L181.068 149.038L180.969 149.034C180.78 149.026 180.591 149.017 180.413 149.007L180.408 149.007C180.407 149.007 180.405 149.007 180.405 149.007L180.097 148.987C180.051 148.984 180.004 148.98 179.958 148.977C179.833 148.968 179.707 148.959 179.586 148.95L179.496 148.942L179.256 148.921C179.109 148.907 178.952 148.891 178.795 148.874C178.767 148.871 178.739 148.868 178.711 148.865L178.438 148.835C178.434 148.835 178.432 148.835 178.429 148.834H178.425C178.421 148.833 178.417 148.833 178.413 148.833C178.283 148.817 178.152 148.801 178.024 148.784C177.893 148.767 177.764 148.75 177.641 148.733L177.621 148.73C177.617 148.729 177.613 148.729 177.611 148.729L177.545 148.718L177.483 148.708C177.247 148.674 177.013 148.637 176.795 148.6L176.783 148.597C176.78 148.597 176.779 148.597 176.777 148.596L176.482 148.544C176.297 148.51 176.111 148.476 175.925 148.439L175.587 148.37C175.473 148.346 175.354 148.319 175.236 148.293C175.175 148.279 175.112 148.266 175.052 148.253L174.727 148.178C174.726 148.177 174.724 148.177 174.722 148.177L174.716 148.176C174.59 148.146 174.454 148.111 174.321 148.077C174.239 148.056 174.161 148.038 174.077 148.015L173.865 147.961C173.863 147.961 173.861 147.96 173.859 147.96L173.844 147.956C173.814 147.948 173.78 147.939 173.749 147.93C173.601 147.89 173.454 147.848 173.308 147.807C173.308 147.807 173.308 147.806 173.308 147.806C173.213 147.779 173.117 147.752 173.025 147.724L172.912 147.689L172.748 147.639C172.718 147.63 172.688 147.62 172.658 147.611C172.484 147.557 172.31 147.503 172.147 147.449L171.859 147.352L171.793 147.33C171.776 147.324 171.758 147.318 171.741 147.312C171.562 147.251 171.401 147.194 171.25 147.14L171.244 147.138C171.242 147.137 171.24 147.136 171.238 147.135L171.091 147.081L170.902 147.012C170.898 147.011 170.894 147.009 170.892 147.008L170.886 147.006C170.705 146.938 170.511 146.863 170.314 146.785L170.207 146.743L170.009 146.665C170.007 146.664 170.005 146.663 170.002 146.662L169.99 146.658C169.945 146.639 169.896 146.618 169.849 146.599C169.743 146.555 169.638 146.512 169.533 146.468C169.53 146.467 169.527 146.465 169.524 146.464C169.397 146.41 169.272 146.357 169.15 146.303L169.047 146.255C168.759 146.127 168.5 146.008 168.259 145.893L167.92 145.728C167.729 145.635 167.536 145.539 167.367 145.453L167.355 145.446C167.351 145.444 167.347 145.442 167.343 145.44L166.761 145.132L166.716 145.108V145.107L166.716 145.107L166.182 144.713C162.718 142.79 158.378 139.784 154.976 135.483C149.115 129.063 143.281 125.361 138.019 123.31C137.984 123.296 137.948 123.282 137.912 123.268C137.312 123.036 136.718 122.826 136.132 122.635C136.073 122.616 136.014 122.596 135.955 122.577C135.777 122.521 135.599 122.464 135.423 122.411C135.363 122.394 135.305 122.377 135.245 122.359C134.936 122.267 134.63 122.182 134.325 122.101C134.245 122.079 134.164 122.057 134.083 122.036C133.934 121.998 133.785 121.961 133.637 121.925C133.533 121.9 133.431 121.876 133.328 121.851C133.19 121.82 133.051 121.786 132.914 121.756C132.911 121.756 132.908 121.755 132.906 121.754C132.629 121.693 132.356 121.637 132.085 121.585C132.077 121.583 132.07 121.582 132.062 121.58C132.058 121.58 132.055 121.579 132.051 121.578C131.789 121.527 131.528 121.481 131.271 121.438C131.252 121.434 131.233 121.432 131.214 121.428C131.205 121.427 131.196 121.426 131.187 121.424C130.949 121.385 130.712 121.348 130.478 121.315C130.433 121.308 130.389 121.304 130.345 121.297C130.126 121.267 129.908 121.239 129.693 121.214C129.643 121.208 129.594 121.203 129.543 121.197C129.539 121.197 129.537 121.197 129.533 121.197C129.331 121.174 129.129 121.152 128.93 121.134C128.875 121.129 128.821 121.125 128.768 121.121C128.745 121.119 128.723 121.117 128.701 121.115C128.528 121.1 128.356 121.085 128.186 121.074C128.107 121.068 128.028 121.064 127.95 121.06C127.938 121.059 127.926 121.059 127.915 121.058C127.762 121.049 127.608 121.038 127.458 121.032C127.315 121.025 127.175 121.021 127.033 121.017C126.938 121.014 126.842 121.01 126.75 121.008C126.516 121.003 126.286 121 126.059 121C125.706 121 125.354 121.007 125.005 121.019C124.896 121.023 124.789 121.029 124.681 121.034C124.438 121.044 124.195 121.057 123.954 121.073C123.837 121.081 123.72 121.089 123.603 121.098C123.361 121.117 123.121 121.139 122.882 121.163C122.781 121.174 122.681 121.183 122.581 121.194C122.253 121.231 121.928 121.27 121.606 121.316C121.601 121.317 121.595 121.318 121.59 121.319C121.252 121.367 120.919 121.421 120.587 121.48C120.514 121.493 120.442 121.507 120.37 121.521C120.116 121.568 119.863 121.616 119.612 121.669C119.525 121.687 119.436 121.707 119.349 121.726C119.104 121.779 118.862 121.835 118.622 121.894C118.548 121.912 118.473 121.929 118.399 121.948C118.092 122.025 117.788 122.106 117.488 122.19C117.488 122.191 117.487 122.191 117.486 122.191C116.582 126.122 116.101 130.241 116.101 134.485C116.101 157.464 130.194 176.788 149.311 182.401C149.817 182.424 150.323 182.446 150.84 182.462C150.887 182.463 150.934 182.457 150.981 182.455C151.057 182.451 151.132 182.442 151.206 182.429C151.317 182.41 151.425 182.382 151.531 182.344C151.533 182.344 151.535 182.343 151.537 182.342C151.642 182.304 151.745 182.257 151.844 182.201C151.851 182.197 151.858 182.193 151.865 182.188C151.883 182.178 151.9 182.168 151.917 182.158C152.017 182.094 152.114 182.021 152.204 181.939C152.207 181.936 152.21 181.933 152.213 181.93C152.303 181.848 152.387 181.758 152.464 181.658C152.467 181.654 152.469 181.651 152.473 181.648C152.488 181.627 152.504 181.606 152.519 181.585C152.566 181.518 152.613 181.449 152.654 181.375C152.745 181.21 152.815 181.036 152.866 180.856C152.871 180.839 152.876 180.821 152.881 180.803C152.916 180.666 152.939 180.527 152.951 180.385C152.952 180.377 152.952 180.37 152.953 180.362C152.986 179.928 152.909 179.486 152.718 179.089L152.639 178.925C152.638 178.924 152.637 178.922 152.636 178.921L151.064 175.664H151.065L151.067 175.664C151.082 175.668 154.303 176.397 159.065 176.397C169.409 176.397 188.207 172.938 197.894 149.772C197.934 149.675 197.966 149.576 197.994 149.476C198.011 149.411 198.024 149.342 198.036 149.273Z" fill="#A06335"/>
</svg>
