<svg width="211" height="183" viewBox="0 0 211 183" fill="none" xmlns="http://www.w3.org/2000/svg">
<path d="M20.5103 25.088V38.336H36.2543C37.1503 38.336 37.8756 38.6133 38.4303 39.168C39.0276 39.7227 39.3263 40.448 39.3263 41.344C39.3263 42.112 39.0276 42.7733 38.4303 43.328C37.8756 43.8827 37.1503 44.16 36.2543 44.16H20.5103V60.928C20.5103 61.7813 20.1903 62.5067 19.5503 63.104C18.9529 63.7013 18.2276 64 17.3743 64C16.4783 64 15.7316 63.7013 15.1343 63.104C14.5369 62.5067 14.2383 61.7813 14.2383 60.928V22.272C14.2383 21.4187 14.5369 20.6933 15.1343 20.096C15.7316 19.4987 16.4569 19.2 17.3103 19.2H39.1343C40.0303 19.2 40.7556 19.4773 41.3103 20.032C41.9076 20.5867 42.2063 21.312 42.2063 22.208C42.2063 22.976 41.9076 23.6587 41.3103 24.256C40.7129 24.8107 39.9876 25.088 39.1343 25.088H20.5103ZM62.1413 29.696C63.2506 29.696 64.2106 29.9947 65.0213 30.592C65.8319 31.1467 66.2373 31.8507 66.2373 32.704C66.2373 33.728 65.9599 34.5173 65.4053 35.072C64.8933 35.584 64.2533 35.84 63.4853 35.84C63.1013 35.84 62.5253 35.712 61.7573 35.456C60.8613 35.1573 60.1573 35.008 59.6453 35.008C58.3226 35.008 57.0213 35.4773 55.7413 36.416C54.5039 37.312 53.4799 38.5707 52.6693 40.192C51.9013 41.7707 51.5173 43.5413 51.5173 45.504V60.928C51.5173 61.7813 51.2186 62.5067 50.6213 63.104C50.0666 63.7013 49.3413 64 48.4453 64C47.5493 64 46.8239 63.7227 46.2693 63.168C45.7146 62.5707 45.4373 61.824 45.4373 60.928V33.536C45.4373 32.6827 45.7146 31.9573 46.2693 31.36C46.8666 30.7627 47.5919 30.464 48.4453 30.464C49.3413 30.464 50.0666 30.7627 50.6213 31.36C51.2186 31.9573 51.5173 32.6827 51.5173 33.536V36.8C52.4559 34.7093 53.8639 33.024 55.7413 31.744C57.6186 30.4213 59.7519 29.7387 62.1413 29.696ZM94.7293 30.016C95.6253 30.016 96.3506 30.3147 96.9053 30.912C97.5026 31.4667 97.8013 32.2133 97.8013 33.152V60.928C97.8013 61.7813 97.5026 62.5067 96.9053 63.104C96.3506 63.7013 95.6253 64 94.7293 64C93.8333 64 93.1079 63.7227 92.5533 63.168C91.9986 62.5707 91.7213 61.824 91.7213 60.928V59.264C90.6119 60.7573 89.0973 62.0373 87.1773 63.104C85.2573 64.128 83.1879 64.64 80.9693 64.64C78.0679 64.64 75.4226 63.8933 73.0333 62.4C70.6866 60.9067 68.8306 58.8373 67.4653 56.192C66.1426 53.504 65.4813 50.496 65.4813 47.168C65.4813 43.84 66.1426 40.8533 67.4653 38.208C68.8306 35.52 70.6866 33.4293 73.0333 31.936C75.3799 30.4427 77.9613 29.696 80.7773 29.696C83.0386 29.696 85.1293 30.1653 87.0493 31.104C89.0119 32.0427 90.5693 33.2373 91.7213 34.688V33.152C91.7213 32.256 91.9986 31.5093 92.5533 30.912C93.1079 30.3147 93.8333 30.016 94.7293 30.016ZM81.6733 59.008C83.6786 59.008 85.4493 58.496 86.9853 57.472C88.5639 56.448 89.7799 55.04 90.6333 53.248C91.5293 51.456 91.9773 49.4293 91.9773 47.168C91.9773 44.9493 91.5293 42.944 90.6333 41.152C89.7799 39.36 88.5639 37.952 86.9853 36.928C85.4493 35.8613 83.6786 35.328 81.6733 35.328C79.6679 35.328 77.8759 35.84 76.2973 36.864C74.7613 37.888 73.5453 39.296 72.6493 41.088C71.7959 42.88 71.3693 44.9067 71.3693 47.168C71.3693 49.4293 71.7959 51.456 72.6493 53.248C73.5453 55.04 74.7613 56.448 76.2973 57.472C77.8759 58.496 79.6679 59.008 81.6733 59.008ZM120.334 29.696C128.014 29.696 131.854 34.304 131.854 43.52V60.928C131.854 61.7813 131.556 62.5067 130.958 63.104C130.404 63.7013 129.678 64 128.782 64C127.929 64 127.204 63.7013 126.606 63.104C126.052 62.5067 125.774 61.7813 125.774 60.928V43.584C125.774 41.0667 125.198 39.0613 124.046 37.568C122.894 36.0747 121.017 35.328 118.414 35.328C116.708 35.328 115.15 35.712 113.742 36.48C112.377 37.2053 111.289 38.208 110.478 39.488C109.71 40.7253 109.326 42.0907 109.326 43.584V60.928C109.326 61.7813 109.028 62.5067 108.43 63.104C107.876 63.7013 107.15 64 106.254 64C105.358 64 104.633 63.7227 104.078 63.168C103.524 62.5707 103.246 61.824 103.246 60.928V33.536C103.246 32.6827 103.524 31.9573 104.078 31.36C104.676 30.7627 105.401 30.464 106.254 30.464C107.15 30.464 107.876 30.7627 108.43 31.36C109.028 31.9573 109.326 32.6827 109.326 33.536V35.776C110.436 34.0693 111.972 32.64 113.934 31.488C115.94 30.2933 118.073 29.696 120.334 29.696ZM164.73 58.688C165.37 59.3707 165.69 60.1173 165.69 60.928C165.69 61.7813 165.349 62.5067 164.666 63.104C164.026 63.6587 163.344 63.936 162.618 63.936C161.68 63.936 160.933 63.5947 160.378 62.912L147.77 49.536L143.93 52.992V60.928C143.93 61.7813 143.632 62.5067 143.034 63.104C142.48 63.7013 141.776 64 140.922 64C140.026 64 139.28 63.7013 138.682 63.104C138.128 62.5067 137.85 61.7813 137.85 60.928V19.712C137.85 18.8587 138.128 18.1333 138.682 17.536C139.28 16.9387 140.026 16.64 140.922 16.64C141.776 16.64 142.48 16.9387 143.034 17.536C143.632 18.1333 143.93 18.8587 143.93 19.712V45.696L159.61 31.296C160.336 30.656 161.082 30.336 161.85 30.336C162.576 30.336 163.237 30.656 163.834 31.296C164.432 31.8933 164.73 32.5333 164.73 33.216C164.73 34.0693 164.325 34.8373 163.514 35.52L152.442 45.376L164.73 58.688ZM199.549 47.232C199.549 50.56 198.803 53.5467 197.309 56.192C195.816 58.8373 193.768 60.9067 191.165 62.4C188.605 63.8933 185.768 64.64 182.653 64.64C179.539 64.64 176.68 63.8933 174.077 62.4C171.517 60.9067 169.491 58.8373 167.997 56.192C166.504 53.5467 165.757 50.56 165.757 47.232C165.757 43.904 166.504 40.896 167.997 38.208C169.491 35.52 171.517 33.4293 174.077 31.936C176.68 30.4427 179.539 29.696 182.653 29.696C185.768 29.696 188.605 30.4427 191.165 31.936C193.768 33.4293 195.816 35.52 197.309 38.208C198.803 40.896 199.549 43.904 199.549 47.232ZM193.469 47.232C193.469 44.928 192.979 42.88 191.997 41.088C191.059 39.2533 189.757 37.8453 188.093 36.864C186.472 35.84 184.659 35.328 182.653 35.328C180.648 35.328 178.813 35.84 177.149 36.864C175.528 37.8453 174.227 39.2533 173.245 41.088C172.307 42.88 171.837 44.928 171.837 47.232C171.837 49.4933 172.307 51.52 173.245 53.312C174.227 55.104 175.528 56.512 177.149 57.536C178.813 58.5173 180.648 59.008 182.653 59.008C184.659 59.008 186.472 58.5173 188.093 57.536C189.757 56.512 191.059 55.104 191.997 53.312C192.979 51.52 193.469 49.4933 193.469 47.232Z" fill="#272525"/>
<path d="M79.2755 104.32C77.7395 104.32 76.3741 104.064 75.1795 103.552C74.0061 103.04 72.8648 102.24 71.7555 101.152C71.4995 100.939 71.3715 100.683 71.3715 100.384C71.3715 100.128 71.4675 99.8933 71.6595 99.68C71.8728 99.4667 72.1075 99.36 72.3635 99.36C72.6195 99.36 72.8541 99.4667 73.0675 99.68C74.7315 101.515 76.8115 102.432 79.3075 102.432C80.8435 102.432 82.1128 102.069 83.1155 101.344C84.1395 100.619 84.6515 99.6693 84.6515 98.496C84.6515 97.5787 84.3955 96.8213 83.8835 96.224C83.3928 95.6053 82.7421 95.104 81.9315 94.72C81.1208 94.336 80.0861 93.9413 78.8275 93.536C77.4621 93.1307 76.3101 92.6827 75.3715 92.192C74.4541 91.7013 73.7075 91.0507 73.1315 90.24C72.5555 89.408 72.2675 88.3627 72.2675 87.104C72.2675 85.9733 72.5661 84.9707 73.1635 84.096C73.7821 83.2213 74.6355 82.5387 75.7235 82.048C76.8328 81.536 78.1021 81.28 79.5315 81.28C80.8328 81.28 82.0488 81.504 83.1795 81.952C84.3315 82.3787 85.2488 82.9973 85.9315 83.808C86.2515 84.1707 86.4115 84.48 86.4115 84.736C86.4115 84.9707 86.3048 85.1947 86.0915 85.408C85.8781 85.6 85.6435 85.696 85.3875 85.696C85.1741 85.696 84.9928 85.6213 84.8435 85.472C84.2675 84.7893 83.4995 84.2347 82.5395 83.808C81.5795 83.3813 80.5768 83.168 79.5315 83.168C77.9741 83.168 76.7048 83.52 75.7235 84.224C74.7421 84.9067 74.2515 85.8453 74.2515 87.04C74.2515 88.2773 74.7208 89.2267 75.6595 89.888C76.5981 90.5493 77.9421 91.1573 79.6915 91.712C81.2061 92.16 82.4435 92.6187 83.4035 93.088C84.3635 93.5573 85.1421 94.2293 85.7395 95.104C86.3581 95.9573 86.6675 97.088 86.6675 98.496C86.6675 99.584 86.3475 100.576 85.7075 101.472C85.0888 102.347 84.2141 103.04 83.0835 103.552C81.9741 104.064 80.7048 104.32 79.2755 104.32ZM96.8801 87.52C98.8001 87.52 100.229 88.128 101.168 89.344C102.107 90.5387 102.576 92.0853 102.576 93.984V103.04C102.576 103.317 102.48 103.552 102.288 103.744C102.117 103.915 101.893 104 101.616 104C101.339 104 101.104 103.915 100.912 103.744C100.741 103.552 100.656 103.317 100.656 103.04V93.984C100.656 92.5973 100.325 91.4773 99.6641 90.624C99.0027 89.7493 97.9681 89.312 96.5601 89.312C95.6641 89.312 94.8107 89.5253 94.0001 89.952C93.2107 90.3787 92.5707 90.9547 92.0801 91.68C91.5894 92.384 91.3441 93.152 91.3441 93.984V103.04C91.3441 103.317 91.2481 103.552 91.0561 103.744C90.8854 103.915 90.6614 104 90.3841 104C90.1067 104 89.8721 103.915 89.6801 103.744C89.5094 103.552 89.4241 103.317 89.4241 103.04V81.28C89.4241 81.0027 89.5094 80.7787 89.6801 80.608C89.8721 80.416 90.1067 80.32 90.3841 80.32C90.6614 80.32 90.8854 80.416 91.0561 80.608C91.2481 80.7787 91.3441 81.0027 91.3441 81.28V90.656C91.9201 89.7387 92.7201 88.992 93.7441 88.416C94.7681 87.8187 95.8134 87.52 96.8801 87.52ZM121.423 95.808C121.423 97.408 121.071 98.8587 120.367 100.16C119.663 101.461 118.693 102.485 117.455 103.232C116.218 103.957 114.842 104.32 113.327 104.32C111.813 104.32 110.437 103.957 109.199 103.232C107.962 102.485 106.991 101.461 106.287 100.16C105.583 98.8587 105.231 97.408 105.231 95.808C105.231 94.208 105.583 92.7573 106.287 91.456C106.991 90.1547 107.962 89.1307 109.199 88.384C110.437 87.6373 111.813 87.264 113.327 87.264C114.842 87.264 116.218 87.6373 117.455 88.384C118.693 89.1307 119.663 90.1547 120.367 91.456C121.071 92.7573 121.423 94.208 121.423 95.808ZM119.503 95.808C119.503 94.528 119.237 93.376 118.703 92.352C118.17 91.328 117.423 90.528 116.463 89.952C115.525 89.3547 114.479 89.056 113.327 89.056C112.175 89.056 111.13 89.3547 110.191 89.952C109.253 90.528 108.506 91.328 107.951 92.352C107.418 93.376 107.151 94.528 107.151 95.808C107.151 97.0667 107.418 98.208 107.951 99.232C108.506 100.256 109.253 101.067 110.191 101.664C111.13 102.24 112.175 102.528 113.327 102.528C114.479 102.528 115.525 102.24 116.463 101.664C117.423 101.088 118.17 100.288 118.703 99.264C119.237 98.24 119.503 97.088 119.503 95.808ZM131.835 87.52C133.243 87.52 134.523 87.8827 135.675 88.608C136.827 89.312 137.723 90.304 138.363 91.584C139.024 92.8427 139.355 94.2613 139.355 95.84C139.355 97.44 139.024 98.88 138.363 100.16C137.723 101.419 136.827 102.411 135.675 103.136C134.544 103.861 133.275 104.224 131.867 104.224C130.629 104.224 129.488 103.936 128.443 103.36C127.419 102.763 126.597 101.973 125.979 100.992V109.44C125.979 109.717 125.883 109.941 125.691 110.112C125.52 110.304 125.296 110.4 125.019 110.4C124.741 110.4 124.507 110.304 124.315 110.112C124.144 109.941 124.059 109.717 124.059 109.44V88.576C124.059 88.2987 124.144 88.064 124.315 87.872C124.507 87.68 124.741 87.584 125.019 87.584C125.296 87.584 125.52 87.68 125.691 87.872C125.883 88.064 125.979 88.2987 125.979 88.576V90.752C126.533 89.7493 127.333 88.96 128.379 88.384C129.424 87.808 130.576 87.52 131.835 87.52ZM131.675 102.432C132.784 102.432 133.776 102.155 134.651 101.6C135.547 101.024 136.24 100.235 136.731 99.232C137.243 98.2293 137.499 97.0987 137.499 95.84C137.499 94.6027 137.243 93.4933 136.731 92.512C136.24 91.5093 135.547 90.7307 134.651 90.176C133.776 89.6 132.784 89.312 131.675 89.312C130.544 89.312 129.531 89.5893 128.635 90.144C127.739 90.6987 127.045 91.4773 126.555 92.48C126.064 93.4613 125.819 94.5813 125.819 95.84C125.819 97.0987 126.064 98.2293 126.555 99.232C127.045 100.235 127.739 101.024 128.635 101.6C129.531 102.155 130.544 102.432 131.675 102.432Z" fill="#272525"/>
<path d="M198.071 148.606C198.067 148.56 198.068 148.514 198.062 148.469C198.059 148.449 198.053 148.43 198.05 148.41C198.001 148.105 197.901 147.811 197.743 147.546C197.738 147.538 197.732 147.53 197.727 147.523C197.676 147.438 197.619 147.355 197.556 147.277C197.551 147.27 197.545 147.265 197.54 147.259C196.987 146.592 196.133 146.347 195.358 146.638L195.351 146.641L195.217 146.691C195.211 146.694 195.205 146.696 195.199 146.698C195.073 146.745 194.94 146.793 194.788 146.847L194.732 146.868C194.578 146.923 194.413 146.981 194.274 147.028L194.253 147.035C194.25 147.036 194.247 147.038 194.244 147.038L194.215 147.047L192.984 147.445L192.415 147.613C192.23 147.667 192.039 147.72 191.857 147.769L191.848 147.771C191.847 147.771 191.846 147.772 191.844 147.772L191.769 147.792L191.744 147.798C191.582 147.842 191.436 147.881 191.292 147.917C191.278 147.92 191.263 147.924 191.248 147.928L191.17 147.948L191.066 147.974C190.903 148.014 190.766 148.047 190.633 148.079L190.397 148.134C190.257 148.166 190.116 148.196 189.975 148.227L189.754 148.275C189.753 148.276 189.752 148.276 189.751 148.276L189.744 148.277C189.667 148.293 189.582 148.31 189.5 148.326C189.407 148.345 189.314 148.364 189.218 148.383L189.101 148.407C188.883 148.448 188.661 148.489 188.453 148.525L188.447 148.526C188.443 148.527 188.439 148.527 188.436 148.528L188.232 148.562C188.206 148.566 188.18 148.57 188.154 148.575C188.022 148.597 187.89 148.619 187.763 148.638L187.606 148.662L187.492 148.679C187.395 148.693 187.293 148.707 187.193 148.721C187.145 148.728 187.096 148.735 187.049 148.741L186.844 148.768L186.772 148.778C186.619 148.798 186.453 148.817 186.286 148.836L186.159 148.851L186.067 148.861C186.063 148.862 186.06 148.862 186.057 148.862L186.051 148.862C185.955 148.872 185.85 148.882 185.75 148.891C185.617 148.904 185.482 148.919 185.354 148.93L185.347 148.93C185.345 148.93 185.344 148.931 185.343 148.931L185.297 148.934L185.212 148.941C185.01 148.958 184.806 148.973 184.612 148.986L184.602 148.987L184.338 149.003C184.198 149.011 184.055 149.018 183.909 149.025C183.89 149.025 183.869 149.027 183.85 149.028H183.846C183.843 149.028 183.839 149.028 183.836 149.028L183.671 149.035L183.556 149.039C183.553 149.039 183.551 149.039 183.549 149.039H183.548C183.389 149.045 183.221 149.05 183.049 149.053L182.825 149.057L182.774 149.058C182.774 149.058 182.774 149.058 182.773 149.058L182.763 149.059C182.661 149.06 182.547 149.06 182.434 149.061C182.415 149.061 182.396 149.061 182.377 149.061H182.374C182.373 149.061 182.373 149.061 182.372 149.061H182.356L182.113 149.061L182.053 149.061H182.046H182.042H182.033L181.981 149.061C181.765 149.058 181.533 149.052 181.301 149.045C181.277 149.044 181.251 149.044 181.227 149.044H181.225C181.219 149.043 181.215 149.043 181.209 149.043L181.035 149.035L180.974 149.033C180.785 149.025 180.596 149.016 180.418 149.006L180.416 149.006C180.414 149.006 180.412 149.006 180.41 149.006L180.102 148.986C180.041 148.982 179.98 148.977 179.919 148.972C179.809 148.965 179.699 148.957 179.593 148.948L179.502 148.94L179.263 148.92C179.115 148.906 178.958 148.889 178.801 148.872C178.773 148.87 178.746 148.867 178.717 148.864L178.444 148.834C178.442 148.833 178.441 148.833 178.439 148.833L178.432 148.833C178.428 148.832 178.423 148.832 178.418 148.831C178.155 148.8 177.892 148.766 177.647 148.731L177.628 148.728C177.624 148.728 177.62 148.727 177.617 148.727L177.536 148.714L177.489 148.707C177.254 148.672 177.02 148.635 176.802 148.598L176.794 148.597C176.79 148.596 176.787 148.596 176.784 148.595L176.489 148.543C176.304 148.509 176.118 148.475 175.932 148.438L175.594 148.369C175.448 148.338 175.295 148.304 175.143 148.27C175.115 148.263 175.087 148.258 175.059 148.251L174.735 148.177C174.733 148.177 174.732 148.176 174.73 148.176L174.723 148.175C174.597 148.145 174.461 148.11 174.328 148.076C174.247 148.055 174.168 148.037 174.085 148.014L173.873 147.96C173.872 147.96 173.872 147.96 173.871 147.96L173.851 147.955C173.68 147.909 173.499 147.858 173.315 147.805C173.22 147.778 173.125 147.751 173.032 147.723L172.99 147.71L172.755 147.638C172.708 147.624 172.662 147.608 172.616 147.594C172.458 147.545 172.301 147.497 172.154 147.449L171.866 147.351L171.8 147.33C171.781 147.323 171.759 147.315 171.74 147.309C171.566 147.249 171.406 147.193 171.257 147.139C171.253 147.138 171.249 147.136 171.246 147.135L171.098 147.081L170.91 147.012C170.906 147.011 170.902 147.009 170.899 147.008L170.894 147.006C170.712 146.938 170.519 146.862 170.322 146.785L170.215 146.743L170.017 146.665C170.016 146.664 170.015 146.664 170.014 146.663L169.998 146.657C169.848 146.596 169.691 146.531 169.533 146.464C169.406 146.41 169.28 146.356 169.159 146.303L169.056 146.255C168.768 146.127 168.509 146.008 168.268 145.893L167.929 145.728C167.738 145.635 167.545 145.539 167.376 145.452L167.364 145.446C167.36 145.443 167.356 145.442 167.352 145.439L166.771 145.132L166.726 145.108V145.107L166.725 145.107L166.191 144.712C162.728 142.789 158.389 139.783 154.988 135.483C147.152 126.897 139.363 123.172 132.929 121.756C132.928 121.755 132.927 121.755 132.927 121.755C132.649 121.694 132.373 121.638 132.101 121.585C132.089 121.582 132.079 121.581 132.068 121.579C131.806 121.528 131.545 121.482 131.288 121.438C131.264 121.434 131.241 121.431 131.217 121.428C130.973 121.387 130.73 121.349 130.491 121.315C130.454 121.31 130.418 121.306 130.381 121.301C130.156 121.27 129.932 121.24 129.711 121.214C129.658 121.208 129.606 121.203 129.553 121.197C129.349 121.174 129.147 121.152 128.947 121.134C128.878 121.128 128.811 121.123 128.742 121.117C128.562 121.102 128.38 121.086 128.202 121.074C128.11 121.067 128.022 121.064 127.932 121.058C127.779 121.049 127.625 121.038 127.474 121.032C127.347 121.025 127.221 121.023 127.094 121.019C126.985 121.015 126.875 121.01 126.767 121.008C126.533 121.003 126.304 121 126.077 121C116.122 121 108.383 125.667 104.783 129.664C101.181 125.667 93.4435 121 83.4876 121C83.2613 121 83.0313 121.003 82.7981 121.008C82.6902 121.01 82.5801 121.015 82.4708 121.019C82.344 121.023 82.219 121.026 82.0907 121.032C81.9398 121.038 81.786 121.049 81.6333 121.058C81.5429 121.064 81.4543 121.067 81.3636 121.074C81.1854 121.086 81.0039 121.102 80.8228 121.117C80.7539 121.123 80.6868 121.128 80.6179 121.134C80.4186 121.152 80.2156 121.175 80.0122 121.197C79.9594 121.203 79.9076 121.208 79.8544 121.214C79.6336 121.24 79.4094 121.27 79.1842 121.301C79.147 121.306 79.1106 121.31 79.0738 121.315C78.834 121.349 78.592 121.387 78.3474 121.428C78.3238 121.432 78.3008 121.435 78.2767 121.438C78.0198 121.481 77.7592 121.528 77.4972 121.579C77.4866 121.581 77.4753 121.582 77.464 121.585C77.1914 121.638 76.9163 121.695 76.6382 121.755C76.6375 121.756 76.6364 121.756 76.6356 121.756C70.2021 123.172 62.4131 126.897 54.5771 135.483C51.1758 139.783 46.8367 142.789 43.3733 144.712L42.8398 145.107L42.8391 145.107V145.108L42.7942 145.132L42.2133 145.439C42.2089 145.442 42.2046 145.443 42.2009 145.446L42.1889 145.452C42.0194 145.539 41.8266 145.635 41.6357 145.728L41.2971 145.893C41.0558 146.008 40.7971 146.127 40.5095 146.255L40.406 146.303C40.2846 146.356 40.1582 146.41 40.0321 146.464C39.8739 146.531 39.7176 146.596 39.5667 146.657L39.551 146.663C39.5499 146.664 39.5488 146.664 39.5481 146.665L39.3498 146.743L39.2434 146.785C39.047 146.862 38.8524 146.938 38.6709 147.006L38.6658 147.008C38.6625 147.009 38.6592 147.011 38.6556 147.012L38.4668 147.081L38.3196 147.135C38.3155 147.136 38.3115 147.138 38.3079 147.139C38.1588 147.193 37.9996 147.249 37.8254 147.309C37.805 147.315 37.7842 147.323 37.7652 147.33L37.6993 147.351L37.4114 147.449C37.2648 147.497 37.1067 147.545 36.9496 147.594C36.9033 147.608 36.8567 147.624 36.8104 147.638L36.5749 147.71L36.5327 147.723C36.4405 147.751 36.3453 147.778 36.2499 147.805C36.0665 147.858 35.8847 147.909 35.7138 147.955L35.6941 147.96C35.6937 147.96 35.6937 147.96 35.693 147.96L35.4809 148.014C35.3971 148.036 35.3187 148.055 35.2374 148.076C35.104 148.11 34.9681 148.145 34.8424 148.175L34.8358 148.176C34.834 148.176 34.8325 148.177 34.8307 148.177L34.5067 148.251C34.4787 148.258 34.4502 148.263 34.4222 148.27C34.2706 148.304 34.1175 148.338 33.9713 148.369L33.6335 148.438C33.4473 148.475 33.2618 148.51 33.077 148.543L32.7818 148.595C32.7785 148.596 32.7752 148.596 32.7716 148.597L32.7636 148.598C32.5456 148.635 32.3113 148.672 32.0762 148.707L32.0296 148.714L31.9483 148.727C31.9447 148.727 31.941 148.728 31.9377 148.728L31.9181 148.731C31.6735 148.766 31.4096 148.8 31.1472 148.831C31.1421 148.831 31.1378 148.832 31.1338 148.833L31.1265 148.833C31.1246 148.834 31.1232 148.834 31.1214 148.834L30.848 148.864C30.82 148.867 30.7919 148.869 30.7642 148.872C30.6079 148.889 30.4504 148.906 30.3028 148.92L30.0634 148.94L29.973 148.948C29.8666 148.957 29.7562 148.965 29.6465 148.972C29.5849 148.977 29.524 148.982 29.4635 148.986L29.1555 149.006C29.1537 149.006 29.1519 149.006 29.1497 149.006L29.1472 149.006C28.9693 149.016 28.7805 149.026 28.5914 149.033L28.5302 149.035L28.3563 149.043C28.3508 149.043 28.3465 149.043 28.3406 149.044H28.3381C28.3144 149.044 28.2882 149.044 28.2641 149.045C28.032 149.052 27.8009 149.058 27.5841 149.061L27.5323 149.061H27.5236H27.5199H27.513L27.4532 149.061L27.2098 149.061H27.1937C27.193 149.061 27.193 149.061 27.1919 149.061H27.1886C27.17 149.061 27.1507 149.061 27.1318 149.061C27.0188 149.06 26.9047 149.06 26.803 149.059L26.7925 149.058C26.7921 149.058 26.7914 149.058 26.7914 149.058L26.7407 149.057L26.5166 149.053C26.3449 149.05 26.1773 149.045 26.018 149.039H26.0173C26.0147 149.039 26.0122 149.039 26.01 149.039L25.8952 149.035L25.7297 149.028C25.7257 149.028 25.7225 149.028 25.7195 149.028H25.7163C25.6973 149.027 25.6758 149.025 25.6565 149.025C25.5111 149.018 25.3679 149.011 25.2283 149.003L24.964 148.987L24.9535 148.986C24.7596 148.973 24.5559 148.958 24.3536 148.941L24.269 148.934L24.2224 148.931C24.2217 148.931 24.2202 148.93 24.2191 148.93L24.2118 148.93C24.0843 148.919 23.9487 148.904 23.8157 148.891C23.7158 148.881 23.6109 148.872 23.5146 148.862L23.5084 148.862C23.5055 148.862 23.5023 148.862 23.4993 148.861L23.4068 148.851L23.2803 148.836C23.1127 148.817 22.9468 148.798 22.7938 148.778L22.722 148.768L22.5172 148.741C22.4698 148.735 22.4213 148.728 22.3732 148.721C22.273 148.707 22.1713 148.693 22.0743 148.679L21.9595 148.662L21.8025 148.638C21.6756 148.618 21.5437 148.597 21.4114 148.575C21.3855 148.571 21.3589 148.567 21.3334 148.562L21.1293 148.528C21.1257 148.528 21.1221 148.527 21.118 148.526L21.1129 148.525C20.9041 148.489 20.6833 148.449 20.4646 148.407L20.3476 148.383C20.2518 148.364 20.1588 148.345 20.0652 148.326C19.9842 148.309 19.8982 148.293 19.8217 148.277L19.8144 148.276C19.8137 148.275 19.8122 148.275 19.8111 148.275L19.5903 148.227C19.45 148.196 19.3086 148.166 19.1693 148.134L18.9332 148.079C18.7998 148.047 18.6628 148.014 18.5002 147.974L18.396 147.948L18.318 147.928C18.3034 147.924 18.2881 147.92 18.2743 147.917C18.131 147.88 17.9845 147.842 17.822 147.798L17.7976 147.792L17.7218 147.772C17.7207 147.772 17.7192 147.771 17.7178 147.771L17.7094 147.769C17.5282 147.72 17.3369 147.666 17.151 147.613L16.5825 147.445L15.351 147.047L15.3222 147.038C15.319 147.038 15.3157 147.036 15.3128 147.035L15.2916 147.028C15.1524 146.981 14.9881 146.923 14.8332 146.868L14.7774 146.847C14.6258 146.793 14.4928 146.744 14.367 146.698C14.3612 146.696 14.355 146.694 14.3492 146.691L14.2147 146.641L14.2074 146.638C13.4333 146.347 12.5783 146.592 12.0258 147.259C12.0204 147.266 12.0142 147.271 12.0091 147.277C11.9464 147.355 11.8899 147.438 11.8381 147.523C11.833 147.531 11.8268 147.538 11.8221 147.546C11.6647 147.811 11.5641 148.105 11.5152 148.41C11.5123 148.43 11.5058 148.449 11.5036 148.469C11.4974 148.514 11.4977 148.56 11.4941 148.606C11.4628 148.998 11.5171 149.4 11.673 149.772C21.3578 172.939 40.1513 176.398 50.4928 176.398C55.2539 176.398 58.4738 175.668 58.4895 175.664L58.4906 175.664H58.4913L56.9198 178.921C56.9191 178.922 56.918 178.924 56.9173 178.925L56.8385 179.09C56.5809 179.623 56.5288 180.239 56.6749 180.804C56.6793 180.822 56.6844 180.839 56.6895 180.856C56.7401 181.036 56.8101 181.21 56.9012 181.375C56.9424 181.449 56.9887 181.518 57.0368 181.585C57.0547 181.61 57.0722 181.634 57.0907 181.658C57.2471 181.861 57.4326 182.029 57.6381 182.158C57.6626 182.173 57.6866 182.188 57.7107 182.202C57.9089 182.315 58.1243 182.391 58.3492 182.429C58.4231 182.441 58.4971 182.451 58.5737 182.455C58.6203 182.457 58.667 182.463 58.714 182.462C81.0254 181.789 92.2533 174.689 97.7426 168.851C102.198 164.113 103.84 159.416 104.443 156.764L104.784 156.765L105.126 156.764C105.728 159.416 107.371 164.113 111.826 168.851C117.315 174.689 128.543 181.789 150.854 182.462C150.901 182.463 150.948 182.457 150.994 182.455C151.071 182.451 151.145 182.442 151.219 182.429C151.443 182.391 151.659 182.315 151.857 182.202C151.882 182.188 151.906 182.173 151.93 182.158C152.135 182.029 152.321 181.861 152.477 181.658C152.496 181.634 152.514 181.61 152.531 181.585C152.579 181.518 152.625 181.449 152.667 181.375C152.758 181.211 152.828 181.036 152.879 180.856C152.883 180.839 152.889 180.822 152.893 180.804C153.039 180.239 152.987 179.623 152.73 179.09L152.651 178.925C152.65 178.924 152.649 178.922 152.648 178.921L151.076 175.664H151.077L151.079 175.664C151.094 175.668 154.314 176.398 159.076 176.398C169.417 176.398 188.211 172.938 197.895 149.772C198.048 149.4 198.102 148.998 198.071 148.606Z" fill="#945C2B"/>
<path d="M80.2152 176.373C65.9739 176.373 54.4286 163.64 54.4286 147.934C54.4286 141.647 56.2821 135.839 59.4144 131.131C57.764 132.532 56.0983 134.126 54.4319 135.941C51.0421 140.2 46.7178 143.177 43.2662 145.081L42.7345 145.471L42.7338 145.472V145.472L42.6891 145.496L42.1101 145.801C42.1058 145.803 42.1014 145.805 42.0978 145.807L42.0858 145.814C41.9169 145.899 41.7248 145.994 41.5345 146.087L41.197 146.25C40.9566 146.363 40.6987 146.481 40.4122 146.609L40.309 146.655C40.1881 146.709 40.062 146.762 39.9364 146.815C39.7787 146.881 39.6229 146.946 39.4725 147.007L39.4569 147.013C39.4558 147.013 39.4547 147.014 39.454 147.014L39.2564 147.092L39.1504 147.133C38.9546 147.21 38.7607 147.285 38.5798 147.352L38.5747 147.354C38.5714 147.355 38.5682 147.357 38.5645 147.358L38.3764 147.426L38.2297 147.48C38.2257 147.481 38.2217 147.483 38.218 147.484C38.0695 147.538 37.9108 147.592 37.7371 147.652C37.7168 147.659 37.6961 147.666 37.6772 147.673L37.6115 147.694L37.3245 147.79C37.1785 147.838 37.0209 147.886 36.8644 147.934C36.8182 147.949 36.7717 147.964 36.7256 147.978L36.491 148.049L36.4489 148.062C36.357 148.09 36.2622 148.116 36.167 148.144C35.9843 148.196 35.8031 148.247 35.6327 148.292L35.6131 148.297C35.6128 148.297 35.6128 148.297 35.612 148.297L35.4006 148.351C35.3171 148.372 35.239 148.391 35.158 148.411C35.0251 148.445 34.8896 148.48 34.7643 148.509L34.7578 148.511C34.756 148.511 34.7545 148.511 34.7527 148.511L34.4298 148.585C34.4018 148.592 34.3735 148.597 34.3455 148.603C34.1944 148.637 34.0419 148.671 33.8962 148.702L33.5596 148.77C33.374 148.807 33.1891 148.841 33.0049 148.874L32.7107 148.926C32.7075 148.926 32.7042 148.927 32.7006 148.927L32.6926 148.928C32.4754 148.965 32.2418 149.002 32.0076 149.036L31.9611 149.043L31.8801 149.056C31.8765 149.056 31.8728 149.057 31.8696 149.057L31.8499 149.06C31.6062 149.095 31.3433 149.128 31.0818 149.159C31.0767 149.159 31.0723 149.16 31.0683 149.161L31.0611 149.161C31.0592 149.162 31.0578 149.162 31.056 149.162L30.7836 149.191C30.7556 149.195 30.7276 149.197 30.7 149.2C30.5442 149.217 30.3873 149.234 30.2402 149.247L30.0016 149.268L29.9115 149.275C29.8055 149.284 29.6954 149.292 29.5861 149.299C29.5247 149.304 29.464 149.309 29.4038 149.313L29.0968 149.332C29.095 149.332 29.0932 149.332 29.091 149.332L29.0885 149.333C28.9112 149.343 28.7231 149.352 28.5346 149.359L28.4736 149.362L28.3003 149.369C28.2949 149.369 28.2905 149.369 28.2847 149.37H28.2822C28.2586 149.371 28.2324 149.371 28.2084 149.371C27.9771 149.378 27.7468 149.384 27.5307 149.387L27.4791 149.387H27.4704H27.4668H27.4599H27.3989L27.1562 149.387H27.1403C27.1395 149.387 27.1395 149.387 27.1384 149.387H27.1352C27.1166 149.387 27.0974 149.387 27.0785 149.387C26.9659 149.387 26.8522 149.387 26.7509 149.385L26.7404 149.385C26.74 149.385 26.7393 149.385 26.7393 149.385L26.6888 149.384L26.4654 149.38C26.2943 149.376 26.1273 149.372 25.9686 149.366H25.9678C25.9653 149.366 25.9627 149.366 25.9606 149.366L25.8462 149.361L25.6813 149.355C25.6773 149.354 25.674 149.354 25.6711 149.354H25.6678C25.6489 149.354 25.6275 149.352 25.6083 149.351C25.4633 149.344 25.3206 149.338 25.1815 149.33L24.9182 149.314L24.9076 149.313C24.7144 149.3 24.5114 149.286 24.3098 149.269L24.2255 149.262L24.179 149.258C24.1783 149.258 24.1769 149.258 24.1758 149.258L24.1685 149.258C24.0414 149.247 23.9063 149.232 23.7737 149.219C23.6742 149.209 23.5696 149.201 23.4737 149.191L23.4675 149.19C23.4646 149.19 23.4613 149.19 23.4584 149.189L23.3662 149.179L23.2401 149.165C23.0731 149.146 22.9078 149.127 22.7553 149.107L22.6837 149.098L22.4796 149.071C22.4324 149.064 22.3841 149.057 22.3361 149.051C22.2362 149.037 22.1349 149.023 22.0383 149.009L21.9239 148.992L21.7674 148.969C21.641 148.949 21.5095 148.927 21.3776 148.906C21.3518 148.902 21.3253 148.898 21.2999 148.893L21.0965 148.86C21.0929 148.859 21.0892 148.859 21.0853 148.858L21.0802 148.857C20.872 148.821 20.6519 148.781 20.434 148.74L20.3174 148.716C20.2219 148.697 20.1293 148.679 20.0359 148.66C19.9553 148.643 19.8696 148.627 19.7933 148.611L19.7861 148.61C19.7853 148.609 19.7839 148.609 19.7828 148.609L19.5627 148.562C19.4229 148.531 19.2819 148.501 19.1432 148.469L18.9078 148.415C18.7749 148.384 18.6383 148.35 18.4763 148.311L18.3725 148.285L18.2947 148.265C18.2802 148.262 18.265 148.258 18.2512 148.254C18.1084 148.218 17.9624 148.18 17.8004 148.137L17.7761 148.131L17.7005 148.111C17.6994 148.111 17.698 148.11 17.6965 148.11L17.6882 148.108C17.5077 148.059 17.317 148.006 17.1318 147.953L16.5652 147.787L15.3379 147.393L15.3092 147.385C15.3059 147.384 15.3027 147.382 15.2997 147.381L15.2787 147.375C15.1399 147.327 14.9761 147.271 14.8218 147.215L14.7662 147.195C14.6151 147.141 14.4825 147.093 14.3572 147.047C14.3514 147.045 14.3452 147.043 14.3394 147.041L14.2054 146.991L14.1981 146.988C13.4267 146.7 12.5746 146.943 12.024 147.603C12.0185 147.61 12.0124 147.614 12.0073 147.621C11.9448 147.698 11.8885 147.78 11.8369 147.864C11.8319 147.872 11.8257 147.88 11.821 147.887C11.6641 148.149 11.5638 148.441 11.5151 148.743C11.5122 148.763 11.5057 148.781 11.5035 148.801C11.4973 148.846 11.4977 148.891 11.4941 148.937C11.4628 149.325 11.517 149.723 11.6724 150.092C21.3242 173.032 40.0537 176.457 50.36 176.457C55.1049 176.457 58.3139 175.735 58.3295 175.731L58.3306 175.731H58.3313L56.7651 178.956C56.7644 178.957 56.7633 178.959 56.7626 178.96L56.6841 179.123C56.4274 179.651 56.3754 180.261 56.5211 180.821C56.5254 180.838 56.5305 180.855 56.5356 180.872C56.5861 181.05 56.6558 181.223 56.7466 181.386C56.7877 181.459 56.8338 181.528 56.8817 181.594C56.8995 181.619 56.917 181.643 56.9355 181.667C57.0913 181.867 57.2762 182.033 57.481 182.161C57.5054 182.176 57.5293 182.19 57.5533 182.205C57.7509 182.316 57.9655 182.392 58.1896 182.43C58.2634 182.442 58.3371 182.452 58.4134 182.455C58.4599 182.458 58.5063 182.463 58.5532 182.462C78.8862 181.852 89.9785 175.922 95.9118 170.491C91.5628 174.177 86.1231 176.373 80.2152 176.373Z" fill="#844719"/>
<path d="M198.036 149.273C198.042 149.244 198.048 149.216 198.052 149.187C198.066 149.096 198.074 149.005 198.077 148.914C198.078 148.909 198.078 148.904 198.079 148.899C198.081 148.802 198.079 148.704 198.071 148.607C198.067 148.562 198.068 148.515 198.062 148.47C198.061 148.466 198.06 148.461 198.059 148.457C198.057 148.441 198.052 148.426 198.05 148.41C198.028 148.272 197.992 148.138 197.948 148.007C197.939 147.982 197.932 147.957 197.922 147.932C197.874 147.799 197.816 147.669 197.743 147.547C197.738 147.539 197.732 147.531 197.727 147.524C197.675 147.439 197.619 147.356 197.556 147.278C197.549 147.27 197.541 147.264 197.534 147.255C197.259 146.924 196.909 146.698 196.531 146.59C196.527 146.589 196.523 146.589 196.519 146.588C196.428 146.562 196.336 146.543 196.243 146.532C196.222 146.529 196.202 146.531 196.182 146.529C196.104 146.522 196.026 146.516 195.948 146.519C195.904 146.521 195.86 146.53 195.816 146.535C195.761 146.541 195.706 146.544 195.651 146.555C195.552 146.575 195.454 146.603 195.357 146.639L195.215 146.692C195.204 146.696 195.192 146.7 195.181 146.704C195.06 146.749 194.932 146.796 194.786 146.848L194.73 146.869C194.576 146.924 194.411 146.982 194.272 147.029L194.25 147.037C194.247 147.037 194.244 147.039 194.242 147.039L194.217 147.047L192.981 147.446L192.412 147.614C192.227 147.668 192.036 147.721 191.854 147.77L191.845 147.772C191.843 147.773 191.842 147.773 191.841 147.774L191.804 147.783L191.741 147.8C191.581 147.843 191.436 147.881 191.294 147.917C191.292 147.917 191.29 147.918 191.289 147.918C191.275 147.922 191.26 147.926 191.245 147.929L191.167 147.949L191.062 147.975C190.899 148.015 190.762 148.048 190.629 148.08L190.393 148.135C190.253 148.167 190.112 148.198 189.971 148.228L189.75 148.276C189.749 148.277 189.748 148.277 189.747 148.277L189.74 148.278C189.694 148.288 189.643 148.298 189.594 148.307C189.468 148.333 189.343 148.359 189.214 148.384L189.097 148.407C188.879 148.449 188.657 148.49 188.449 148.526L188.444 148.527C188.44 148.527 188.436 148.528 188.432 148.529L188.228 148.563C188.22 148.564 188.212 148.566 188.204 148.566C188.052 148.592 187.903 148.616 187.758 148.639L187.602 148.662L187.487 148.68C187.39 148.694 187.289 148.708 187.188 148.722C187.14 148.729 187.092 148.736 187.044 148.742L186.793 148.776L186.768 148.779C186.615 148.798 186.449 148.818 186.281 148.837L186.155 148.851L186.062 148.862C186.059 148.862 186.056 148.862 186.053 148.863L186.047 148.863C186.004 148.867 185.959 148.872 185.914 148.876C185.724 148.896 185.532 148.915 185.35 148.931L185.342 148.931C185.341 148.931 185.34 148.932 185.339 148.932L185.323 148.933L185.208 148.942C185.005 148.959 184.802 148.974 184.608 148.987L184.597 148.988L184.333 149.004C184.215 149.011 184.092 149.017 183.969 149.022C183.928 149.024 183.885 149.026 183.845 149.028H183.842C183.838 149.028 183.835 149.029 183.832 149.029L183.666 149.035L183.551 149.04C183.549 149.04 183.546 149.04 183.544 149.04H183.543C183.384 149.046 183.216 149.05 183.044 149.054L182.947 149.056L182.77 149.06C182.769 149.06 182.769 149.06 182.768 149.06L182.758 149.06C182.696 149.06 182.626 149.061 182.558 149.061C182.496 149.062 182.433 149.062 182.372 149.062H182.369C182.368 149.062 182.368 149.062 182.367 149.062H182.351H182.247L182.097 149.062L182.048 149.062H182.041H182.037H182.028L181.976 149.062C181.79 149.06 181.591 149.054 181.392 149.048C181.337 149.046 181.277 149.046 181.222 149.045H181.22C181.214 149.044 181.209 149.044 181.204 149.044L181.068 149.038L180.969 149.034C180.78 149.026 180.591 149.017 180.413 149.007L180.408 149.007C180.407 149.007 180.405 149.007 180.405 149.007L180.097 148.987C180.051 148.984 180.004 148.98 179.958 148.977C179.833 148.968 179.707 148.959 179.586 148.95L179.496 148.942L179.256 148.921C179.109 148.907 178.952 148.891 178.795 148.874C178.767 148.871 178.739 148.868 178.711 148.865L178.438 148.835C178.434 148.835 178.432 148.835 178.429 148.834H178.425C178.421 148.833 178.417 148.833 178.413 148.833C178.283 148.817 178.152 148.801 178.024 148.784C177.893 148.767 177.764 148.75 177.641 148.733L177.621 148.73C177.617 148.729 177.613 148.729 177.611 148.729L177.545 148.718L177.483 148.708C177.247 148.674 177.013 148.637 176.795 148.6L176.783 148.597C176.78 148.597 176.779 148.597 176.777 148.596L176.482 148.544C176.297 148.51 176.111 148.476 175.925 148.439L175.587 148.37C175.473 148.346 175.354 148.319 175.236 148.293C175.175 148.279 175.112 148.266 175.052 148.253L174.727 148.178C174.726 148.177 174.724 148.177 174.722 148.177L174.716 148.176C174.59 148.146 174.454 148.111 174.321 148.077C174.239 148.056 174.161 148.038 174.077 148.015L173.865 147.961C173.863 147.961 173.861 147.96 173.859 147.96L173.844 147.956C173.814 147.948 173.78 147.939 173.749 147.93C173.601 147.89 173.454 147.848 173.308 147.807C173.308 147.807 173.308 147.806 173.308 147.806C173.213 147.779 173.117 147.752 173.025 147.724L172.912 147.689L172.748 147.639C172.718 147.63 172.688 147.62 172.658 147.611C172.484 147.557 172.31 147.503 172.147 147.449L171.859 147.352L171.793 147.33C171.776 147.324 171.758 147.318 171.741 147.312C171.562 147.251 171.401 147.194 171.25 147.14L171.244 147.138C171.242 147.137 171.24 147.136 171.238 147.135L171.091 147.081L170.902 147.012C170.898 147.011 170.894 147.009 170.892 147.008L170.886 147.006C170.705 146.938 170.511 146.863 170.314 146.785L170.207 146.743L170.009 146.665C170.007 146.664 170.005 146.663 170.002 146.662L169.99 146.658C169.945 146.639 169.896 146.618 169.849 146.599C169.743 146.555 169.638 146.512 169.533 146.468C169.53 146.467 169.527 146.465 169.524 146.464C169.397 146.41 169.272 146.357 169.15 146.303L169.047 146.255C168.759 146.127 168.5 146.008 168.259 145.893L167.92 145.728C167.729 145.635 167.536 145.539 167.367 145.453L167.355 145.446C167.351 145.444 167.347 145.442 167.343 145.44L166.761 145.132L166.716 145.108V145.107L166.716 145.107L166.182 144.713C162.718 142.79 158.378 139.784 154.976 135.483C149.115 129.063 143.281 125.361 138.019 123.31C137.984 123.296 137.948 123.282 137.912 123.268C137.312 123.036 136.718 122.826 136.132 122.635C136.073 122.616 136.014 122.596 135.955 122.577C135.777 122.521 135.599 122.464 135.423 122.411C135.363 122.394 135.305 122.377 135.245 122.359C134.936 122.267 134.63 122.182 134.325 122.101C134.245 122.079 134.164 122.057 134.083 122.036C133.934 121.998 133.785 121.961 133.637 121.925C133.533 121.9 133.431 121.876 133.328 121.851C133.19 121.82 133.051 121.786 132.914 121.756C132.911 121.756 132.908 121.755 132.906 121.754C132.629 121.693 132.356 121.637 132.085 121.585C132.077 121.583 132.07 121.582 132.062 121.58C132.058 121.58 132.055 121.579 132.051 121.578C131.789 121.527 131.528 121.481 131.271 121.438C131.252 121.434 131.233 121.432 131.214 121.428C131.205 121.427 131.196 121.426 131.187 121.424C130.949 121.385 130.712 121.348 130.478 121.315C130.433 121.308 130.389 121.304 130.345 121.297C130.126 121.267 129.908 121.239 129.693 121.214C129.643 121.208 129.594 121.203 129.543 121.197C129.539 121.197 129.537 121.197 129.533 121.197C129.331 121.174 129.129 121.152 128.93 121.134C128.875 121.129 128.821 121.125 128.768 121.121C128.745 121.119 128.723 121.117 128.701 121.115C128.528 121.1 128.356 121.085 128.186 121.074C128.107 121.068 128.028 121.064 127.95 121.06C127.938 121.059 127.926 121.059 127.915 121.058C127.762 121.049 127.608 121.038 127.458 121.032C127.315 121.025 127.175 121.021 127.033 121.017C126.938 121.014 126.842 121.01 126.75 121.008C126.516 121.003 126.286 121 126.059 121C125.706 121 125.354 121.007 125.005 121.019C124.896 121.023 124.789 121.029 124.681 121.034C124.438 121.044 124.195 121.057 123.954 121.073C123.837 121.081 123.72 121.089 123.603 121.098C123.361 121.117 123.121 121.139 122.882 121.163C122.781 121.174 122.681 121.183 122.581 121.194C122.253 121.231 121.928 121.27 121.606 121.316C121.601 121.317 121.595 121.318 121.59 121.319C121.252 121.367 120.919 121.421 120.587 121.48C120.514 121.493 120.442 121.507 120.37 121.521C120.116 121.568 119.863 121.616 119.612 121.669C119.525 121.687 119.436 121.707 119.349 121.726C119.104 121.779 118.862 121.835 118.622 121.894C118.548 121.912 118.473 121.929 118.399 121.948C118.092 122.025 117.788 122.106 117.488 122.19C117.488 122.191 117.487 122.191 117.486 122.191C116.582 126.122 116.101 130.241 116.101 134.485C116.101 157.464 130.194 176.788 149.311 182.401C149.817 182.424 150.323 182.446 150.84 182.462C150.887 182.463 150.934 182.457 150.981 182.455C151.057 182.451 151.132 182.442 151.206 182.429C151.317 182.41 151.425 182.382 151.531 182.344C151.533 182.344 151.535 182.343 151.537 182.342C151.642 182.304 151.745 182.257 151.844 182.201C151.851 182.197 151.858 182.193 151.865 182.188C151.883 182.178 151.9 182.168 151.917 182.158C152.017 182.094 152.114 182.021 152.204 181.939C152.207 181.936 152.21 181.933 152.213 181.93C152.303 181.848 152.387 181.758 152.464 181.658C152.467 181.654 152.469 181.651 152.473 181.648C152.488 181.627 152.504 181.606 152.519 181.585C152.566 181.518 152.613 181.449 152.654 181.375C152.745 181.21 152.815 181.036 152.866 180.856C152.871 180.839 152.876 180.821 152.881 180.803C152.916 180.666 152.939 180.527 152.951 180.385C152.952 180.377 152.952 180.37 152.953 180.362C152.986 179.928 152.909 179.486 152.718 179.089L152.639 178.925C152.638 178.924 152.637 178.922 152.636 178.921L151.064 175.664H151.065L151.067 175.664C151.082 175.668 154.303 176.397 159.065 176.397C169.409 176.397 188.207 172.938 197.894 149.772C197.934 149.675 197.966 149.576 197.994 149.476C198.011 149.411 198.024 149.342 198.036 149.273Z" fill="#A06335"/>
</svg>
