<svg xmlns="http://www.w3.org/2000/svg" width="243" height="202.447" viewBox="0 0 243 202.447">
  <g id="page_not_found" data-name="page not found" transform="translate(-66 -188.685)">
    <g id="Ellipse_42" data-name="Ellipse 42" transform="translate(219 234)" fill="#ffd479" stroke="#707070" stroke-width="1">
      <circle cx="9" cy="9" r="9" stroke="none"/>
      <circle cx="9" cy="9" r="8.5" fill="none"/>
    </g>
    <g id="Background" transform="translate(66 288)">
      <g id="Group_328" data-name="Group 328" opacity="0.8">
        <path id="Rectangle_28" data-name="Rectangle 28" d="M136.509,315.01h153a25,25,0,0,1,25,25h0a25,25,0,0,1-25,25h-153a25,25,0,0,1-25-25h0A25,25,0,0,1,136.509,315.01Z" transform="translate(-71.509 -290.01)" fill="#fcf7ea"/>
        <path id="Rectangle_29" data-name="Rectangle 29" d="M91.509,290.01h163a20,20,0,0,1,20,20h0a20,20,0,0,1-20,20h-163a20,20,0,0,1-20-20h0A20,20,0,0,1,91.509,290.01Z" transform="translate(-71.509 -290.01)" fill="#fcf7ea"/>
        <path id="Rectangle_30" data-name="Rectangle 30" d="M91.509,350.01h163a20,20,0,0,1,20,20h0a20,20,0,0,1-20,20h-163a20,20,0,0,1-20-20h0A20,20,0,0,1,91.509,350.01Z" transform="translate(-71.509 -290.01)" fill="#fcf7ea"/>
      </g>
    </g>
    <g id="Stars" transform="translate(189.027 188.685) rotate(22)">
      <path id="Path_2" data-name="Path 2" d="M186.1,173.188a4.075,4.075,0,1,1,4.075-4.075A4.074,4.074,0,0,1,186.1,173.188Zm0-6.539a2.467,2.467,0,0,0-2.464,2.463c0,1.359.707,2.464,2.066,2.464a2.839,2.839,0,0,0,2.862-2.464A2.467,2.467,0,0,0,186.1,166.649Z" transform="translate(-155.969 -165.038)" fill="#faa3b3"/>
      <path id="Path_3" data-name="Path 3" d="M236.264,253.874a4.075,4.075,0,1,1,4.075-4.075A4.074,4.074,0,0,1,236.264,253.874Zm0-6.539a2.464,2.464,0,1,0,2.464,2.464h0A2.468,2.468,0,0,0,236.264,247.335Z" transform="translate(-155.969 -165.038)" fill="#68ecb3"/>
      <path id="Path_4" data-name="Path 4" d="M162.07,210.7h-1.481v-1.481a1.045,1.045,0,0,0-2.09,0V210.7h-1.485a1.045,1.045,0,1,0,0,2.09h1.481v1.48a1.045,1.045,0,1,0,2.09,0v-1.484h1.481a1.045,1.045,0,0,0,0-2.09Z" transform="translate(-155.969 -165.038)" fill="#ffcf68"/>
      <path id="Path_5" data-name="Path 5" d="M248.819,172.462h-1.48v-1.481a1.046,1.046,0,0,0-2.091,0v1.481h-1.48a1.045,1.045,0,0,0,0,2.09h1.48v1.479a1.046,1.046,0,1,0,2.091,0V174.55h1.48a1.045,1.045,0,1,0,0-2.09Z" transform="translate(-155.969 -165.038)" fill="#6393f5"/>
    </g>
    <g id="Group_329" data-name="Group 329" transform="translate(-10 -70)">
      <rect id="Rectangle_183" data-name="Rectangle 183" width="1" height="5" rx="0.5" transform="translate(158 369)" fill="#fff"/>
      <rect id="Rectangle_184" data-name="Rectangle 184" width="1" height="5" rx="0.5" transform="translate(160 371)" fill="#fff"/>
      <rect id="Rectangle_185" data-name="Rectangle 185" width="1" height="5" rx="0.5" transform="translate(162 369)" fill="#fff"/>
    </g>
    <g id="Base_line" data-name="Base line" transform="translate(92 388)">
      <path id="Path_178" data-name="Path 178" d="M266.282,386.406H247.961a1.566,1.566,0,1,0,0,3.132h18.321a1.566,1.566,0,0,0,0-3.132Z" transform="translate(-76.801 -386.406)" fill="#f0ead9"/>
      <path id="Path_179" data-name="Path 179" d="M96.687,386.406H78.367a1.566,1.566,0,1,0,0,3.132h18.32a1.566,1.566,0,1,0,0-3.132Z" transform="translate(-76.801 -386.406)" fill="#f0ead9"/>
      <path id="Path_180" data-name="Path 180" d="M240.5,386.406H104.148a1.566,1.566,0,1,0,0,3.132H240.5a1.566,1.566,0,0,0,0-3.132Z" transform="translate(-76.801 -386.406)" fill="#f0ead9"/>
    </g>
    <g id="Group_347" data-name="Group 347" transform="translate(151 25)">
      <path id="Path_1534" data-name="Path 1534" d="M37.461,28.02a9.371,9.371,0,1,0-9.371,9.371A9.381,9.381,0,0,0,37.461,28.02Zm-9.367,7.371a7.371,7.371,0,1,1,7.371-7.371,7.379,7.379,0,0,1-7.371,7.371Z" transform="translate(48.839 190)" fill="#ffad00"/>
      <path id="Path_1535" data-name="Path 1535" d="M29.094,14.57V11a1,1,0,0,0-2,0v3.57a1,1,0,0,0,2,0Z" transform="translate(48.839 190)" fill="#ffad00"/>
      <path id="Path_1536" data-name="Path 1536" d="M33.562,16.734a1,1,0,0,0,.914-.594l1.453-3.266a1,1,0,1,0-1.828-.812l-1.453,3.266a1,1,0,0,0,.914,1.406Z" transform="translate(48.839 190)" fill="#ffad00"/>
      <path id="Path_1537" data-name="Path 1537" d="M40.07,15.887l-2.656,2.391a1,1,0,1,0,1.336,1.488l2.656-2.391a1,1,0,0,0-1.336-1.488Z" transform="translate(48.839 190)" fill="#ffad00"/>
      <path id="Path_1538" data-name="Path 1538" d="M39.93,24.172a1,1,0,0,0,.953.691.946.946,0,0,0,.309-.051l3.4-1.105a1,1,0,0,0-.617-1.9l-3.4,1.105a1,1,0,0,0-.645,1.262Z" transform="translate(48.839 190)" fill="#ffad00"/>
      <path id="Path_1539" data-name="Path 1539" d="M45.02,30.8a1,1,0,0,0,.1-1.992l-3.555-.375a1.009,1.009,0,0,0-1.1.891,1,1,0,0,0,.891,1.1l3.555.375a.952.952,0,0,0,.105,0Z" transform="translate(48.839 190)" fill="#ffad00"/>
      <path id="Path_1540" data-name="Path 1540" d="M42.332,37.4a1,1,0,0,0,1-1.734l-3.094-1.785a1,1,0,1,0-1,1.734Z" transform="translate(48.839 190)" fill="#ffad00"/>
      <path id="Path_1541" data-name="Path 1541" d="M37.289,42.375A1,1,0,1,0,38.9,41.2l-2.1-2.891a1,1,0,1,0-1.617,1.176Z" transform="translate(48.839 190)" fill="#ffad00"/>
      <path id="Path_1542" data-name="Path 1542" d="M30.68,40.195a1,1,0,0,0-.77,1.188l.742,3.5a1,1,0,0,0,.977.793.97.97,0,0,0,.211-.023,1,1,0,0,0,.77-1.187l-.742-3.5a1,1,0,0,0-1.187-.77Z" transform="translate(48.839 190)" fill="#ffad00"/>
      <path id="Path_1543" data-name="Path 1543" d="M24.316,40.965l-.742,3.5a1,1,0,0,0,.77,1.184.97.97,0,0,0,.211.023,1,1,0,0,0,.977-.793l.742-3.5a1,1,0,1,0-1.957-.414Z" transform="translate(48.839 190)" fill="#ffad00"/>
      <path id="Path_1544" data-name="Path 1544" d="M18.086,42.789a1,1,0,0,0,.809-.414L21,39.484a1,1,0,1,0-1.617-1.176l-2.1,2.891a1,1,0,0,0,.809,1.59Z" transform="translate(48.839 190)" fill="#ffad00"/>
      <path id="Path_1545" data-name="Path 1545" d="M13.352,37.531a1,1,0,0,0,.5-.133l3.094-1.785a1,1,0,0,0-1-1.734l-3.094,1.785a1,1,0,0,0,.5,1.867Z" transform="translate(48.839 190)" fill="#ffad00"/>
      <path id="Path_1546" data-name="Path 1546" d="M10.172,29.9a1,1,0,0,0,.992.895.952.952,0,0,0,.105,0l3.555-.375a1,1,0,1,0-.207-1.988l-3.555.375a1,1,0,0,0-.891,1.1Z" transform="translate(48.839 190)" fill="#ffad00"/>
      <path id="Path_1547" data-name="Path 1547" d="M10.953,22.453a1,1,0,0,0,.641,1.262l3.4,1.105a1.063,1.063,0,0,0,.309.051,1,1,0,0,0,.313-1.953l-3.4-1.105a1,1,0,0,0-1.262.641Z" transform="translate(48.839 190)" fill="#ffad00"/>
      <path id="Path_1548" data-name="Path 1548" d="M18.1,20.023a1,1,0,0,0,.668-1.746L16.11,15.886a1,1,0,0,0-1.34,1.488l2.656,2.391a1.014,1.014,0,0,0,.672.258Z" transform="translate(48.839 190)" fill="#ffad00"/>
      <path id="Path_1549" data-name="Path 1549" d="M22.625,16.734a1,1,0,0,0,.914-1.406l-1.453-3.266a1,1,0,0,0-1.828.812l1.453,3.266a.99.99,0,0,0,.914.594Z" transform="translate(48.839 190)" fill="#ffad00"/>
    </g>
    <path id="Path_1569" data-name="Path 1569" d="M1281.674,1901.01s51.549-59.273,106.307,0" transform="translate(-1191 -1512)" fill="#ffd479" opacity="0.354"/>
    <path id="Path_1570" data-name="Path 1570" d="M1281.674,1901.01s51.549-59.273,106.307,0" transform="translate(-1142 -1511)" fill="#ffd479" opacity="0.381"/>
    <g id="Group_346" data-name="Group 346" transform="translate(51.072 117.051)">
      <path id="Path_1533" data-name="Path 1533" d="M1288.1,1745.791v5.595l20.277,1.183H1334.9l1.4-3.916-1.4-2.862h-7.921l.873-21.662,12.882-.74,2.433-2.355v-28.2l-2.433-4.093h-4.437l-3.342,3.445v20.988h-5.1v-27.611l-3.393-8.25-6.517-4.833h-6.793l-5.831,1.073-7.131,6.947-.91,20.535-5.655-.809.984-14.664v-6.525l-2.914-3.018-3.877-.856-3.574,3.026v28.154l1.406,3.062,2.168,1.668h11.461v34.714Z" transform="translate(-1170.656 -1480.589)" fill="#f7d7dd"/>
      <path id="Path_1507" data-name="Path 1507" d="M31.516,59.361H40.2V91.542H32.409a1.2,1.2,0,0,0-1.277,1.277v6a1.2,1.2,0,0,0,1.277,1.277H79.915a1.2,1.2,0,0,0,1.277-1.277v-6a1.2,1.2,0,0,0-1.277-1.277h-6.64V71.878h9.069a6.543,6.543,0,0,0,6.515-6.515l0-24.9a6.515,6.515,0,1,0-13.03,0l0,18.518H73.275V34.2a16.6,16.6,0,0,0-33.2,0V46.467H37.9V27.944a6.543,6.543,0,0,0-6.515-6.515A6.436,6.436,0,0,0,25,27.944v24.9a6.543,6.543,0,0,0,6.515,6.515ZM78.637,97.543H33.685V94.1H78.637Zm-51.083-69.6a3.961,3.961,0,1,1,7.922,0V47.737a1.2,1.2,0,0,0,1.277,1.277h4.724a1.2,1.2,0,0,0,1.277-1.277l0-13.535a14.048,14.048,0,1,1,28.1,0v26.05a1.2,1.2,0,0,0,1.277,1.277h5.108a1.2,1.2,0,0,0,1.277-1.277V40.458a3.961,3.961,0,0,1,7.922,0v24.9a3.98,3.98,0,0,1-3.961,3.961H72.122A1.2,1.2,0,0,0,70.845,70.6V91.541h-28.1V58.082a1.2,1.2,0,0,0-1.277-1.277H31.51a3.98,3.98,0,0,1-3.961-3.961Z" transform="translate(85 172.398)" fill="#f0365a"/>
      <g id="Group_345" data-name="Group 345" transform="translate(113.269 194.999)">
        <path id="Path_1508" data-name="Path 1508" d="M29.979,34.064a1.4,1.4,0,1,1-1.95,2.02,1.4,1.4,0,0,1,1.95-2.02" transform="translate(-27.556 -18.157)" fill="#f0365a"/>
        <path id="Path_1509" data-name="Path 1509" d="M29.962,26.829a1.4,1.4,0,1,1-1.946,2.02,1.4,1.4,0,1,1,1.946-2.02" transform="translate(-27.56 -20.161)" fill="#f0365a"/>
        <path id="Path_1510" data-name="Path 1510" d="M45.21,26a1.406,1.406,0,1,1-1.95,2.025A1.406,1.406,0,0,1,45.21,26" transform="translate(-23.336 -20.39)" fill="#f0365a"/>
        <path id="Path_1511" data-name="Path 1511" d="M52.788,21.935a1.406,1.406,0,1,1-1.95,2.025,1.406,1.406,0,0,1,1.95-2.025" transform="translate(-21.236 -21.517)" fill="#f0365a"/>
        <path id="Path_1512" data-name="Path 1512" d="M32.084,39.978A1.406,1.406,0,0,1,30.134,42a1.406,1.406,0,1,1,1.95-2.025" transform="translate(-26.973 -16.518)" fill="#f0365a"/>
        <path id="Path_1513" data-name="Path 1513" d="M48.389,31.861a1.4,1.4,0,1,1-1.95,2.02,1.4,1.4,0,0,1,1.95-2.02" transform="translate(-22.455 -18.767)" fill="#f0365a"/>
        <path id="Path_1514" data-name="Path 1514" d="M55.967,27.794a1.4,1.4,0,1,1-1.95,2.02,1.4,1.4,0,0,1,1.95-2.02" transform="translate(-20.355 -19.894)" fill="#f0365a"/>
        <path id="Path_1515" data-name="Path 1515" d="M36.2,45.923a1.406,1.406,0,1,1-1.95,2.025,1.406,1.406,0,0,1,1.95-2.025" transform="translate(-25.833 -14.87)" fill="#f0365a"/>
        <path id="Path_1516" data-name="Path 1516" d="M43.846,41.786a1.4,1.4,0,1,1-1.95,2.02,1.4,1.4,0,0,1,1.95-2.02" transform="translate(-23.714 -16.017)" fill="#f0365a"/>
        <path id="Path_1517" data-name="Path 1517" d="M51.5,37.79a1.4,1.4,0,0,1-1.95,2.02,1.4,1.4,0,0,1,1.95-2.02" transform="translate(-21.593 -17.124)" fill="#f0365a"/>
        <path id="Path_1518" data-name="Path 1518" d="M59.077,33.724a1.4,1.4,0,1,1-1.95,2.02,1.4,1.4,0,0,1,1.95-2.02" transform="translate(-19.493 -18.251)" fill="#f0365a"/>
        <path id="Path_1519" data-name="Path 1519" d="M46.956,47.716a1.406,1.406,0,1,1-1.95,2.025,1.406,1.406,0,0,1,1.95-2.025" transform="translate(-22.852 -14.373)" fill="#f0365a"/>
        <path id="Path_1520" data-name="Path 1520" d="M54.6,43.716a1.406,1.406,0,0,1-1.95,2.025,1.406,1.406,0,1,1,1.95-2.025" transform="translate(-20.733 -15.482)" fill="#f0365a"/>
        <path id="Path_1521" data-name="Path 1521" d="M69.9,35.587a1.4,1.4,0,0,1-1.95,2.02,1.4,1.4,0,1,1,1.95-2.02" transform="translate(-16.494 -17.735)" fill="#f0365a"/>
        <path id="Path_1522" data-name="Path 1522" d="M42.487,57.712a1.4,1.4,0,0,1-1.95,2.02,1.4,1.4,0,1,1,1.95-2.02" transform="translate(-24.09 -11.604)" fill="#f0365a"/>
        <path id="Path_1523" data-name="Path 1523" d="M50.065,53.646a1.406,1.406,0,1,1-1.95,2.025,1.406,1.406,0,0,1,1.95-2.025" transform="translate(-21.991 -12.73)" fill="#f0365a"/>
        <path id="Path_1524" data-name="Path 1524" d="M57.78,49.575a1.4,1.4,0,1,1-1.95,2.02,1.4,1.4,0,0,1,1.95-2.02" transform="translate(-19.853 -13.859)" fill="#f0365a"/>
        <path id="Path_1525" data-name="Path 1525" d="M73.018,41.517a1.406,1.406,0,0,1-1.95,2.025,1.406,1.406,0,1,1,1.95-2.025" transform="translate(-15.631 -16.091)" fill="#f0365a"/>
        <path id="Path_1526" data-name="Path 1526" d="M45.667,63.571a1.4,1.4,0,0,1-1.95,2.02,1.4,1.4,0,1,1,1.95-2.02" transform="translate(-23.209 -9.981)" fill="#f0365a"/>
        <path id="Path_1527" data-name="Path 1527" d="M53.245,59.505a1.4,1.4,0,0,1-1.95,2.02,1.4,1.4,0,1,1,1.95-2.02" transform="translate(-21.109 -11.107)" fill="#f0365a"/>
        <path id="Path_1528" data-name="Path 1528" d="M60.9,55.509a1.4,1.4,0,1,1-1.95,2.02,1.4,1.4,0,1,1,1.95-2.02" transform="translate(-18.99 -12.215)" fill="#f0365a"/>
        <path id="Path_1529" data-name="Path 1529" d="M69.854,51.4a1.406,1.406,0,0,1-1.95,2.025,1.406,1.406,0,1,1,1.95-2.025" transform="translate(-16.508 -13.352)" fill="#f0365a"/>
        <path id="Path_1530" data-name="Path 1530" d="M48.776,69.5a1.406,1.406,0,0,1-1.95,2.025,1.406,1.406,0,0,1,1.95-2.025" transform="translate(-22.348 -8.338)" fill="#f0365a"/>
        <path id="Path_1531" data-name="Path 1531" d="M56.424,65.5a1.406,1.406,0,1,1-1.95,2.025,1.406,1.406,0,0,1,1.95-2.025" transform="translate(-20.229 -9.446)" fill="#f0365a"/>
        <path id="Path_1532" data-name="Path 1532" d="M59.6,71.361a1.4,1.4,0,1,1-1.95,2.02,1.4,1.4,0,0,1,1.95-2.02" transform="translate(-19.347 -7.822)" fill="#f0365a"/>
      </g>
    </g>
  </g>
</svg>
